<?xml version="1.0" encoding="utf-8"?>
<!-- Generator: Adobe Illustrator 15.0.0, SVG Export Plug-In . SVG Version: 6.00 Build 0)  -->
<!DOCTYPE svg PUBLIC "-//W3C//DTD SVG 1.1//EN" "http://www.w3.org/Graphics/SVG/1.1/DTD/svg11.dtd">
<svg version="1.1" id="Warstwa_1" xmlns="http://www.w3.org/2000/svg" xmlns:xlink="http://www.w3.org/1999/xlink" x="0px" y="0px"
	 width="160px" height="160px" viewBox="0 0 160 160" enable-background="new 0 0 160 160" xml:space="preserve">
<path id="apple" d="M123.771,60.222c-2.938-2.939-6.375-5.237-10.213-6.832C109.73,51.804,105.675,51,101.5,51
	c-4.172,0-8.229,0.803-12.063,2.39c-0.484,0.202-0.965,0.416-1.438,0.641V40c0-1.461,0.279-2.877,0.834-4.211
	c0.555-1.337,1.357-2.538,2.389-3.568c0.256-0.257,0.524-0.5,0.803-0.729c0.836-0.687,1.762-1.243,2.764-1.659
	c0.667-0.276,1.361-0.483,2.066-0.622c1.767-0.345,3.612-0.259,5.336,0.259c0.345,0.104,0.685,0.224,1.018,0.362
	c1.341,0.556,2.541,1.36,3.568,2.389c0.211,0.209,0.41,0.427,0.602,0.651c0.059,0.068,0.111,0.142,0.168,0.211
	c0.128,0.158,0.258,0.316,0.376,0.481c0.063,0.085,0.117,0.175,0.177,0.262c0.104,0.155,0.211,0.309,0.31,0.469
	c0.059,0.097,0.11,0.197,0.166,0.295c0.077,0.137,0.153,0.272,0.226,0.412c-0.521,1.021-1.197,1.952-2.021,2.776
	c-1.028,1.03-2.229,1.833-3.565,2.387c-2.04,0.845-3.01,3.185-2.164,5.226c0.845,2.04,3.181,3.011,5.228,2.165
	c2.313-0.958,4.388-2.346,6.16-4.121c1.758-1.757,3.131-3.807,4.086-6.089c0.01-0.021,0.021-0.04,0.028-0.06
	c0.003-0.005,0.005-0.01,0.007-0.015c0.037-0.086,0.053-0.179,0.082-0.267c0.051-0.155,0.108-0.307,0.143-0.47
	c0.052-0.258,0.08-0.521,0.08-0.785l0.003-1.484c0.001-0.529-0.103-1.052-0.306-1.541c-0.959-2.313-2.348-4.386-4.123-6.161
	c-1.771-1.773-3.845-3.159-6.16-4.121c-4.619-1.915-9.924-1.916-14.551,0c-2.312,0.96-4.384,2.347-6.158,4.121
	c-1.776,1.777-3.164,3.851-4.121,6.161C80.486,35.034,80,37.481,80,40v14.033c-0.475-0.226-0.955-0.44-1.441-0.642
	C74.732,51.804,70.675,51,66.5,51c-4.172,0-8.229,0.803-12.062,2.39c-3.832,1.592-7.268,3.891-10.211,6.833
	c-2.948,2.95-5.248,6.388-6.833,10.216C35.806,74.264,35,78.322,35,82.5c0,22.711,10.386,56.5,39,56.5
	c1.853,0,3.657-0.357,5.358-1.064c1.707-0.705,3.234-1.729,4.541-3.035c0.033-0.033,0.067-0.067,0.102-0.104
	c0.033,0.034,0.064,0.067,0.1,0.102c1.309,1.31,2.836,2.332,4.541,3.037C90.344,138.643,92.146,139,94,139
	c28.613,0,39-33.789,39-56.5c0-4.17-0.805-8.227-2.391-12.061C129.02,66.606,126.718,63.168,123.771,60.222z M94,131
	c-0.796,0-1.568-0.152-2.298-0.455s-1.384-0.74-1.946-1.305c-0.563-0.561-1-1.215-1.302-1.944c-1.255-3.026-3.533-3.353-4.454-3.353
	c-0.922,0-3.201,0.326-4.454,3.352c-0.303,0.73-0.741,1.385-1.305,1.948c-0.561,0.562-1.215,0.999-1.945,1.302
	C75.568,130.848,74.796,131,74,131c-22.744,0-31-29.004-31-48.5c0-3.119,0.6-6.145,1.784-8.997c1.183-2.856,2.898-5.421,5.099-7.623
	c2.198-2.197,4.764-3.914,7.619-5.1c5.708-2.363,12.295-2.361,17.99,0c2.138,0.888,4.13,2.085,5.925,3.562
	c1.479,1.249,3.64,1.26,5.129,0.027c1.8-1.488,3.806-2.696,5.955-3.589c5.708-2.363,12.295-2.361,17.991,0
	c2.863,1.189,5.428,2.905,7.621,5.1c2.201,2.201,3.919,4.767,5.104,7.623C124.4,76.357,125,79.385,125,82.5
	C125,101.996,116.744,131,94,131z"/>
</svg>
