<?xml version="1.0" encoding="utf-8"?>
<!-- Generator: Adobe Illustrator 15.0.0, SVG Export Plug-In . SVG Version: 6.00 Build 0)  -->
<!DOCTYPE svg PUBLIC "-//W3C//DTD SVG 1.1//EN" "http://www.w3.org/Graphics/SVG/1.1/DTD/svg11.dtd">
<svg version="1.1" id="Warstwa_1" xmlns="http://www.w3.org/2000/svg" xmlns:xlink="http://www.w3.org/1999/xlink" x="0px" y="0px"
	 width="160px" height="160px" viewBox="0 0 160 160" enable-background="new 0 0 160 160" xml:space="preserve">
<path id="blender" d="M87.529,111.471C88.471,112.4,89,113.689,89,115c0,1.32-0.529,2.609-1.471,3.529
	C86.609,119.471,85.318,120,84,120c-1.32,0-2.609-0.529-3.54-1.471C79.53,117.609,79,116.32,79,115s0.53-2.6,1.46-3.529
	C81.4,110.529,82.68,110,84,110C85.311,110,86.6,110.529,87.529,111.471z M133,35v40c0,2.209-1.791,4-4,4s-4-1.791-4-4V35
	c0-3.309-2.691-6-6-6h-2.719l-7.75,62h0.466c1.019,0,1.987,0.389,2.722,1.068c0.452,0.402,0.895,0.818,1.321,1.246
	c2.869,2.869,5.108,6.215,6.653,9.946c1.545,3.728,2.33,7.677,2.33,11.738c-0.002,4.067-0.785,8.017-2.328,11.739
	c-1.549,3.732-3.786,7.078-6.651,9.943c-0.452,0.453-0.919,0.892-1.399,1.314c-0.729,0.646-1.672,1.002-2.646,1.002h-50
	c-1.078,0-2.056-0.426-2.775-1.119c-0.434-0.387-0.856-0.785-1.267-1.195c-2.865-2.865-5.103-6.211-6.651-9.944
	c-1.544-3.724-2.328-7.673-2.329-11.739c0-4.064,0.784-8.016,2.33-11.741c1.546-3.729,3.785-7.077,6.654-9.944
	c0.413-0.414,0.839-0.816,1.276-1.207C56.971,91.406,57.957,91,58.998,91h0.276l-9.088-44.685L35.422,16.789
	c-0.62-1.24-0.554-2.713,0.175-3.892S37.614,11,39,11h75c1.146,0,2.238,0.493,2.999,1.353c0.759,0.86,1.112,2.005,0.97,3.144
	L117.281,21H119C126.721,21,133,27.28,133,35z M107.411,99h-3.401c-0.001,0-0.003,0-0.005,0c-0.003,0-0.005,0-0.008,0H60.588
	c-2.109,2.115-3.755,4.579-4.892,7.323c-1.141,2.751-1.72,5.671-1.72,8.677c0.001,3.01,0.579,5.928,1.718,8.676
	c1.139,2.747,2.785,5.211,4.891,7.324h46.829c2.105-2.115,3.752-4.578,4.893-7.324c1.137-2.746,1.715-5.667,1.717-8.678
	c0-3.003-0.578-5.922-1.719-8.674C111.166,103.579,109.521,101.115,107.411,99z M109.469,19H45.472l12.105,24.211
	c0.157,0.314,0.272,0.647,0.342,0.992L67.438,91h33.031L109.469,19z M72.211,78.578l10,5C82.773,83.859,83.387,84,84,84
	s1.227-0.141,1.789-0.422l10-5c1.977-0.988,2.775-3.391,1.789-5.367c-0.988-1.977-3.395-2.777-5.367-1.789L84,75.528l-8.211-4.105
	c-1.976-0.987-4.379-0.187-5.367,1.789C69.435,75.187,70.235,77.59,72.211,78.578z"/>
</svg>
