<?xml version="1.0" encoding="utf-8"?>
<!-- Generator: Adobe Illustrator 15.0.0, SVG Export Plug-In . SVG Version: 6.00 Build 0)  -->
<!DOCTYPE svg PUBLIC "-//W3C//DTD SVG 1.1//EN" "http://www.w3.org/Graphics/SVG/1.1/DTD/svg11.dtd">
<svg version="1.1" id="Warstwa_1" xmlns="http://www.w3.org/2000/svg" xmlns:xlink="http://www.w3.org/1999/xlink" x="0px" y="0px"
	 width="160px" height="160px" viewBox="0 0 160 160" enable-background="new 0 0 160 160" xml:space="preserve">
<path id="broccoli" d="M29.493,80.506c2.711,2.711,5.875,4.827,9.406,6.292c2.747,1.138,5.621,1.833,8.571,2.088L61,115.943V135
	c0,2.209,1.791,4,4,4h30c2.209,0,4-1.791,4-4v-19.057l13.529-27.059c2.953-0.255,5.828-0.949,8.572-2.087
	c3.528-1.464,6.692-3.582,9.405-6.294c2.711-2.712,4.828-5.876,6.289-9.402C138.259,67.578,139,63.842,139,60
	s-0.74-7.577-2.201-11.102c-1.464-3.527-3.58-6.691-6.293-9.404c-2.709-2.71-5.873-4.827-9.404-6.292
	c-2.039-0.844-4.164-1.443-6.336-1.803c-0.828-1.202-1.76-2.333-2.795-3.37c-2.242-2.243-4.861-3.995-7.783-5.207
	c-5.84-2.42-12.545-2.417-18.375,0c-2.104,0.874-4.047,2.038-5.812,3.455c-1.765-1.417-3.707-2.581-5.813-3.455
	c-5.84-2.42-12.545-2.417-18.375,0c-2.92,1.211-5.538,2.963-7.781,5.206c-1.035,1.035-1.963,2.166-2.791,3.367
	c-2.177,0.36-4.303,0.962-6.342,1.807c-3.528,1.464-6.692,3.581-9.402,6.291c-2.713,2.711-4.83,5.876-6.293,9.405
	C21.741,52.422,21,56.158,21,60.001c0.001,3.844,0.742,7.579,2.202,11.102C24.667,74.633,26.783,77.796,29.493,80.506z
	 M91.422,113.211C91.145,113.768,91,114.379,91,115v16H69v-16c0-0.621-0.145-1.232-0.422-1.789L56.143,88.342
	c1.69-0.365,3.348-0.875,4.959-1.543c1.136-0.472,2.252-1.048,3.35-1.689l12.719,12.72C77.953,98.609,78.976,99,80,99
	c1.023,0,2.047-0.391,2.828-1.172l12.721-12.721c1.098,0.643,2.215,1.219,3.352,1.689c1.611,0.668,3.269,1.178,4.957,1.543
	L91.422,113.211z M80,89.343l-0.351-0.352C79.766,88.993,79.882,89,80,89s0.234-0.007,0.351-0.009L80,89.343z M30.592,51.961
	c1.059-2.554,2.593-4.846,4.56-6.811c1.965-1.966,4.257-3.5,6.811-4.559c1.92-0.796,3.949-1.3,6.03-1.497
	c3.42-0.324,6.881,0.188,10.045,1.498c2.043,0.846,4.381-0.123,5.227-2.164c0.846-2.041-0.123-4.381-2.164-5.227
	c-1.606-0.666-3.258-1.174-4.942-1.539c0.854-0.568,1.762-1.054,2.718-1.451c3.876-1.607,8.361-1.609,12.246,0.001
	c1.947,0.808,3.694,1.976,5.191,3.474c1.001,1.001,2.399,1.352,3.687,1.07c1.286,0.281,2.685-0.07,3.687-1.071
	c1.498-1.498,3.244-2.667,5.189-3.474c3.877-1.607,8.361-1.609,12.246,0.001c0.957,0.396,1.863,0.883,2.717,1.45
	c-1.684,0.365-3.336,0.873-4.941,1.539c-2.041,0.846-3.008,3.187-2.162,5.227c0.847,2.041,3.187,3.009,5.228,2.163
	C104.51,39.536,107.213,39,110,39c0.707,0,1.418,0.035,2.113,0.104c2.041,0.204,4.033,0.705,5.924,1.488
	c2.557,1.061,4.848,2.594,6.813,4.558c1.967,1.968,3.5,4.26,4.56,6.812C130.465,54.511,131,57.215,131,60
	c0,2.786-0.535,5.49-1.592,8.039c-1.059,2.552-2.592,4.844-4.559,6.81c-1.966,1.966-4.259,3.5-6.813,4.56
	c-5.091,2.108-10.974,2.112-16.073,0c-1.554-0.645-3.087-1.533-4.561-2.64c-1.424-1.072-3.387-1.072-4.811,0.001
	c-1.47,1.106-3.003,1.995-4.557,2.639c-5.09,2.108-10.973,2.112-16.073,0c-1.553-0.645-3.087-1.533-4.56-2.64
	c-1.425-1.072-3.387-1.072-4.81,0.001c-1.47,1.106-3.003,1.995-4.557,2.639c-5.09,2.108-10.973,2.112-16.074-0.001
	c-2.556-1.06-4.848-2.594-6.814-4.559c-1.964-1.964-3.498-4.255-4.558-6.81C29.536,65.492,29.001,62.787,29,60
	C29,57.214,29.536,54.51,30.592,51.961z"/>
</svg>
