<?xml version="1.0" encoding="utf-8"?>
<!-- Generator: Adobe Illustrator 15.0.0, SVG Export Plug-In . SVG Version: 6.00 Build 0)  -->
<!DOCTYPE svg PUBLIC "-//W3C//DTD SVG 1.1//EN" "http://www.w3.org/Graphics/SVG/1.1/DTD/svg11.dtd">
<svg version="1.1" id="Warstwa_1" xmlns="http://www.w3.org/2000/svg" xmlns:xlink="http://www.w3.org/1999/xlink" x="0px" y="0px"
	 width="160px" height="160px" viewBox="0 0 160 160" enable-background="new 0 0 160 160" xml:space="preserve">
<path id="coconut" d="M104.016,41C80.973,41,61.42,57.05,56.327,78.796L34.698,57.173c-1.563-1.563-4.095-1.562-5.656,0
	C19.987,66.227,15,78.264,15,91.066c0,12.805,4.987,24.842,14.042,33.896c9.055,9.052,21.094,14.037,33.9,14.038
	c0.001,0,0.002,0,0.003,0c7.195,0,14.149-1.575,20.468-4.563c6.478,3.018,13.394,4.563,20.603,4.563c27.019,0,49-21.98,49-49
	C153.016,62.981,131.033,41,104.016,41z M62.942,131c-10.669-0.001-20.7-4.154-28.244-11.695C27.155,111.762,23,101.734,23,91.066
	c0-9.32,3.173-18.156,9.009-25.271l24.269,24.265c0,0,0,0,0.001,0l31.907,31.9l0.031,0.03c-0.505,0.413-1.021,0.813-1.543,1.2
	c-0.072,0.053-0.146,0.104-0.218,0.156c-0.455,0.332-0.916,0.655-1.386,0.969c-0.086,0.058-0.172,0.113-0.26,0.17
	c-0.479,0.313-0.965,0.619-1.457,0.912c-0.055,0.033-0.108,0.065-0.164,0.1c-0.555,0.325-1.114,0.641-1.684,0.938
	c-0.008,0.004-0.014,0.01-0.021,0.014C75.834,129.42,69.513,131,62.945,131C62.945,131,62.943,131,62.942,131z M104.016,131
	c-4.138,0-8.16-0.602-12.027-1.793c0.104-0.078,0.199-0.166,0.301-0.245c0.622-0.483,1.232-0.983,1.834-1.499
	c0.195-0.168,0.395-0.336,0.587-0.508c0.728-0.645,1.44-1.305,2.134-1.996c0.545-0.543,0.909-1.23,1.071-1.97
	c0.006-0.025,0.019-0.05,0.022-0.074c0.03-0.155,0.035-0.315,0.047-0.474c0.009-0.104,0.031-0.205,0.031-0.312l0,0l0,0
	c0-1.062-0.423-2.078-1.173-2.828l-33.598-33.59C65.398,64.987,82.975,49,104.016,49c22.606,0,41,18.393,41,41
	C145.016,112.607,126.622,131,104.016,131z M112.545,71.46c0.939,0.94,1.471,2.22,1.471,3.54s-0.531,2.6-1.471,3.54
	c-0.932,0.93-2.211,1.46-3.529,1.46c-1.32,0-2.611-0.53-3.541-1.46s-1.459-2.22-1.459-3.54s0.529-2.61,1.459-3.54
	s2.221-1.46,3.541-1.46C110.334,70,111.613,70.53,112.545,71.46z M112.545,91.46c0.939,0.94,1.471,2.22,1.471,3.54
	s-0.531,2.6-1.471,3.54c-0.932,0.931-2.211,1.46-3.529,1.46c-1.32,0-2.611-0.529-3.541-1.46s-1.459-2.22-1.459-3.54
	s0.529-2.609,1.459-3.54s2.221-1.46,3.541-1.46C110.334,90,111.613,90.529,112.545,91.46z M132.555,81.46
	c0.93,0.931,1.461,2.22,1.461,3.54s-0.531,2.6-1.461,3.529c-0.939,0.939-2.221,1.471-3.539,1.471c-1.32,0-2.611-0.529-3.541-1.471
	c-0.93-0.93-1.459-2.209-1.459-3.529s0.529-2.609,1.459-3.54c0.939-0.931,2.221-1.46,3.541-1.46
	C130.334,80,131.613,80.529,132.555,81.46z"/>
</svg>
