<?xml version="1.0" encoding="utf-8"?>
<!-- Generator: Adobe Illustrator 15.0.0, SVG Export Plug-In . SVG Version: 6.00 Build 0)  -->
<!DOCTYPE svg PUBLIC "-//W3C//DTD SVG 1.1//EN" "http://www.w3.org/Graphics/SVG/1.1/DTD/svg11.dtd">
<svg version="1.1" id="Warstwa_1" xmlns="http://www.w3.org/2000/svg" xmlns:xlink="http://www.w3.org/1999/xlink" x="0px" y="0px"
	 width="160px" height="160px" viewBox="0 0 160 160" enable-background="new 0 0 160 160" xml:space="preserve">
<path id="corn" d="M51,120c0,15.99,13.01,29,29,29c15.99,0,29-13.01,29-29c0-38.379,9.486-58.026,9.578-58.211
	c0.877-1.755,0.354-3.887-1.239-5.034c-1.592-1.146-3.78-0.971-5.167,0.417L99,70.343V45c0-27.566-17.012-33.553-17.734-33.795
	c-0.433-0.144-0.884-0.207-1.333-0.2c-0.018,0-0.035-0.005-0.054-0.005c-0.005,0-0.011,0-0.017,0c-0.155,0-0.303,0.03-0.453,0.047
	c-0.019,0.003-0.037,0.003-0.055,0.006c-0.506,0.067-0.977,0.226-1.404,0.463C74.488,13.018,61,20.445,61,45v25.343L47.828,57.171
	c-1.386-1.385-3.565-1.559-5.157-0.417c-1.591,1.141-2.12,3.271-1.253,5.026C41.514,61.974,51,81.621,51,120z M101,120
	c0,11.58-9.421,21-21,21c-11.042,0-20.121-8.566-20.939-19.402l46.873-46.875C103.423,84.996,101,100.072,101,120z M84,85.344V69h7
	v9.343L84,85.344z M69,48.858C69.321,48.942,69.652,49,70,49h6v12h-7V48.858z M84,49h6c0.348,0,0.68-0.058,1-0.142V61h-7V49z
	 M90.857,41.097C90.581,41.037,90.295,41,90,41h-6.018l-0.074-18.448C86.88,25.734,90.154,31.391,90.857,41.097z M75.909,22.773
	L75.983,41H70c-0.295,0-0.58,0.037-0.857,0.097C69.833,31.618,72.987,25.998,75.909,22.773z M69,69h7v16.344l-7-7V69z M74.343,95
	l-15.53,15.531c-0.614-15.305-2.649-27.23-4.746-35.808L74.343,95z"/>
</svg>
