<?xml version="1.0" encoding="utf-8"?>
<!-- Generator: Adobe Illustrator 15.0.0, SVG Export Plug-In . SVG Version: 6.00 Build 0)  -->
<!DOCTYPE svg PUBLIC "-//W3C//DTD SVG 1.1//EN" "http://www.w3.org/Graphics/SVG/1.1/DTD/svg11.dtd">
<svg version="1.1" id="Warstwa_1" xmlns="http://www.w3.org/2000/svg" xmlns:xlink="http://www.w3.org/1999/xlink" x="0px" y="0px"
	 width="160px" height="160px" viewBox="0 0 160 160" enable-background="new 0 0 160 160" xml:space="preserve">
<path id="cucumber" d="M98.529,118.529C97.609,119.471,96.318,120,95,120c-1.32,0-2.602-0.529-3.54-1.471
	C90.529,117.6,90,116.32,90,115c0-1.311,0.529-2.6,1.46-3.54c0.938-0.931,2.229-1.46,3.54-1.46c1.318,0,2.6,0.529,3.529,1.46
	C99.469,112.4,100,113.68,100,115S99.471,117.609,98.529,118.529z M95,120c-1.311,0-2.602,0.529-3.54,1.46
	C90.529,122.391,90,123.68,90,125s0.529,2.6,1.46,3.54c0.931,0.93,2.22,1.46,3.54,1.46c1.318,0,2.609-0.529,3.529-1.46
	c0.939-0.931,1.471-2.22,1.471-3.54s-0.529-2.609-1.471-3.54C97.6,120.529,96.318,120,95,120z M100,125
	c0,1.32,0.529,2.609,1.46,3.54c0.938,0.93,2.22,1.46,3.54,1.46c1.311,0,2.6-0.529,3.529-1.46c0.939-0.931,1.471-2.22,1.471-3.54
	s-0.529-2.609-1.471-3.54c-0.93-0.931-2.211-1.46-3.529-1.46c-1.32,0-2.609,0.529-3.54,1.46S100,123.68,100,125z M101.46,111.46
	c-0.931,0.931-1.46,2.22-1.46,3.54s0.529,2.609,1.46,3.54c0.938,0.931,2.22,1.46,3.54,1.46c1.311,0,2.6-0.529,3.529-1.46
	c0.939-0.931,1.471-2.22,1.471-3.54s-0.529-2.609-1.471-3.54c-0.93-0.931-2.211-1.46-3.529-1.46
	C103.68,110,102.391,110.529,101.46,111.46z M22.443,137.273c-0.957-2.307-1.442-4.752-1.443-7.271c0-2.518,0.486-4.965,1.443-7.275
	c0.092-0.222,0.204-0.435,0.333-0.637c19.303-29.943,59.371-70.01,89.315-89.314c0.201-0.13,0.413-0.241,0.634-0.333
	C115.033,31.485,117.48,31,120,31h13.344l3.828-3.829c1.561-1.562,4.096-1.562,5.656,0c1.563,1.563,1.563,4.095,0,5.657L139,36.657
	V50c0,2.516-0.484,4.963-1.443,7.274c-0.092,0.221-0.203,0.434-0.332,0.636c-6.728,10.433-16.158,22.362-27.474,34.771
	c0.453,0.162,0.903,0.336,1.351,0.521c3.528,1.463,6.692,3.579,9.404,6.292c2.713,2.715,4.83,5.879,6.292,9.403
	C128.26,112.424,129,116.158,129,120c0,3.84-0.74,7.576-2.201,11.102c-1.465,3.531-3.582,6.694-6.293,9.404
	c-2.709,2.711-5.873,4.828-9.404,6.293C107.58,148.26,103.846,149,100,149c-3.84,0-7.574-0.74-11.102-2.202
	c-3.528-1.463-6.692-3.579-9.405-6.292c-2.709-2.709-4.827-5.872-6.292-9.402c-0.314-0.758-0.588-1.526-0.836-2.305
	c-8.701,7.346-17.071,13.664-24.458,18.426c-0.201,0.129-0.414,0.24-0.634,0.332C44.966,148.516,42.519,149,40,149
	c-2.516,0-4.962-0.484-7.272-1.443c-2.312-0.959-4.385-2.345-6.162-4.119C24.789,141.66,23.402,139.587,22.443,137.273z
	 M108.038,100.593C105.486,99.535,102.783,99,100,99c-2.787,0-5.491,0.535-8.036,1.592c-2.553,1.059-4.845,2.592-6.813,4.561
	c-1.965,1.966-3.5,4.257-4.561,6.812C79.536,114.511,79,117.215,79,120c0.001,2.787,0.536,5.492,1.592,8.039
	c1.061,2.555,2.594,4.846,4.559,6.811c1.967,1.965,4.259,3.5,6.813,4.559c5.104,2.115,10.987,2.111,16.074,0.001
	c2.557-1.06,4.85-2.595,6.813-4.56c1.967-1.966,3.5-4.258,4.562-6.813c1.056-2.548,1.591-5.252,1.591-8.037
	s-0.535-5.488-1.592-8.037c-1.059-2.553-2.594-4.845-4.561-6.813C112.884,103.186,110.592,101.65,108.038,100.593z M29,130
	c0,1.461,0.281,2.878,0.833,4.209c0.555,1.34,1.358,2.54,2.388,3.568c1.03,1.031,2.232,1.834,3.57,2.39
	c2.565,1.063,5.525,1.104,8.106,0.124c8.094-5.248,17.43-12.432,27.108-20.852c0.003-0.153,0.014-0.308,0.019-0.461
	c0.008-0.217,0.015-0.434,0.027-0.648c0.014-0.252,0.034-0.503,0.055-0.754c0.017-0.211,0.034-0.424,0.056-0.633
	c0.026-0.256,0.06-0.51,0.093-0.764c0.027-0.205,0.052-0.41,0.083-0.613c0.04-0.258,0.087-0.516,0.133-0.771
	c0.036-0.197,0.069-0.396,0.109-0.592c0.054-0.264,0.116-0.525,0.177-0.787c0.043-0.188,0.083-0.376,0.131-0.563
	c0.069-0.273,0.148-0.545,0.226-0.816c0.049-0.174,0.094-0.348,0.147-0.52c0.092-0.3,0.194-0.598,0.296-0.896
	c0.048-0.142,0.091-0.283,0.142-0.423c0.157-0.438,0.324-0.87,0.502-1.303c1.465-3.529,3.582-6.692,6.294-9.403
	c2.714-2.714,5.877-4.83,9.403-6.293C92.42,91.74,96.154,91,100,91c0.137,0,0.273,0.001,0.412,0.004
	c12.43-13.289,22.732-26.082,29.878-37.104c0.472-1.244,0.71-2.554,0.71-3.9V39h-11c-1.35,0-2.658,0.238-3.896,0.709
	C87.586,58.199,48.2,97.586,29.711,126.102C29.239,127.344,29,128.654,29,130z"/>
</svg>
