<?xml version="1.0" encoding="utf-8"?>
<!-- Generator: Adobe Illustrator 15.0.0, SVG Export Plug-In . SVG Version: 6.00 Build 0)  -->
<!DOCTYPE svg PUBLIC "-//W3C//DTD SVG 1.1//EN" "http://www.w3.org/Graphics/SVG/1.1/DTD/svg11.dtd">
<svg version="1.1" id="Warstwa_1" xmlns="http://www.w3.org/2000/svg" xmlns:xlink="http://www.w3.org/1999/xlink" x="0px" y="0px"
	 width="160px" height="160px" viewBox="0 0 160 160" enable-background="new 0 0 160 160" xml:space="preserve">
<path id="egg" d="M80.05,139c23.298,0,38.95-17.682,38.95-44c0-8.055-3.846-26.009-10.279-42.112
	c-5.813-14.55-15.507-31.894-28.671-31.894C56.563,20.994,41,73.656,41,95C41,121.318,56.693,139,80.05,139z M58.698,54.037
	c6.637-15.915,14.419-25.042,21.352-25.042c6.58,0,14.521,10.042,21.242,26.862C107.288,70.864,111,87.859,111,95
	c0,21.869-12.148,36-30.95,36C61.188,131,49,116.869,49,95C49,86.199,52.331,69.303,58.698,54.037z"/>
</svg>
