<?xml version="1.0" encoding="utf-8"?>
<!-- Generator: Adobe Illustrator 15.0.0, SVG Export Plug-In . SVG Version: 6.00 Build 0)  -->
<!DOCTYPE svg PUBLIC "-//W3C//DTD SVG 1.1//EN" "http://www.w3.org/Graphics/SVG/1.1/DTD/svg11.dtd">
<svg version="1.1" id="Warstwa_1" xmlns="http://www.w3.org/2000/svg" xmlns:xlink="http://www.w3.org/1999/xlink" x="0px" y="0px"
	 width="160px" height="160px" viewBox="0 0 160 160" enable-background="new 0 0 160 160" xml:space="preserve">
<path id="eggplant" d="M51,120.001c0.001,3.845,0.741,7.579,2.202,11.103c1.465,3.529,3.581,6.693,6.291,9.403
	c2.713,2.711,5.877,4.827,9.406,6.291C72.426,148.26,76.16,149,80,149c3.846,0,7.58-0.74,11.102-2.201
	c3.53-1.465,6.695-3.582,9.405-6.293c2.711-2.712,4.828-5.875,6.291-9.404c1.461-3.523,2.202-7.26,2.202-11.102
	c0-11.574-2.072-19.166-4.268-27.205c-2.486-9.104-5.277-19.339-5.682-38.086l3.12,3.12c1.388,1.387,3.575,1.562,5.167,0.417
	c1.592-1.147,2.116-3.279,1.239-5.034L98.63,33.319c-0.81-1.855-2.511-4.066-5.196-6.753c-1.775-1.776-3.85-3.163-6.16-4.121
	c-1.135-0.47-2.31-0.821-3.506-1.061c-0.318-2.57-0.973-5.077-1.971-7.485c-1.463-3.527-3.579-6.691-6.291-9.403
	c-1.562-1.563-4.094-1.563-5.657-0.001s-1.563,4.095-0.001,5.657c1.967,1.968,3.501,4.26,4.56,6.812
	c0.609,1.47,1.023,2.995,1.284,4.554c-1.01,0.233-2.006,0.529-2.968,0.928c-2.312,0.959-4.384,2.346-6.159,4.122
	c-2.685,2.685-4.387,4.896-5.197,6.753l-9.946,19.893c-0.77,1.54-0.468,3.4,0.75,4.618C52.939,58.597,53.963,59,55.001,59
	c0.607,0,1.22-0.138,1.788-0.422l4.197-2.099c-0.147,17.429-2.842,26.796-5.457,35.839C53.2,100.374,51,107.982,51,120.001z
	 M68.578,36.789c0.042-0.084,0.081-0.17,0.117-0.257c0.093-0.223,0.697-1.48,3.526-4.31c1.031-1.031,2.231-1.835,3.568-2.39
	c2.663-1.104,5.749-1.107,8.42,0.001c1.337,0.554,2.538,1.358,3.566,2.387c2.832,2.833,3.437,4.088,3.529,4.312
	c0.034,0.086,0.073,0.172,0.115,0.256l2.225,4.447c-0.146,0.053-0.293,0.115-0.436,0.187L75,50.528l-8.211-4.105
	C66.226,46.141,65.613,46,65,46c-0.372,0-0.745,0.052-1.105,0.156L68.578,36.789z M63.215,94.541
	c2.643-9.137,5.619-19.484,5.771-38.076l4.226,2.113c1.127,0.563,2.451,0.563,3.578,0l14.218-7.109
	c0.135,21.908,3.25,33.333,6.008,43.434C99.152,102.734,101,109.498,101,120c0,2.785-0.536,5.49-1.593,8.038
	c-1.06,2.554-2.593,4.845-4.558,6.812c-1.966,1.965-4.258,3.5-6.813,4.56c-5.087,2.11-10.971,2.112-16.073,0
	c-2.555-1.062-4.847-2.595-6.813-4.56c-1.964-1.965-3.498-4.256-4.558-6.811c-1.056-2.547-1.591-5.252-1.592-8.039
	C59,109.115,60.953,102.361,63.215,94.541z"/>
</svg>
