<?xml version="1.0" encoding="utf-8"?>
<!-- Generator: Adobe Illustrator 15.0.0, SVG Export Plug-In . SVG Version: 6.00 Build 0)  -->
<!DOCTYPE svg PUBLIC "-//W3C//DTD SVG 1.1//EN" "http://www.w3.org/Graphics/SVG/1.1/DTD/svg11.dtd">
<svg version="1.1" id="Warstwa_1" xmlns="http://www.w3.org/2000/svg" xmlns:xlink="http://www.w3.org/1999/xlink" x="0px" y="0px"
	 width="160px" height="160px" viewBox="0 0 160 160" enable-background="new 0 0 160 160" xml:space="preserve">
<path id="ekobag" d="M125,41H99V30c0-10.477-8.523-19-19-19c-10.477,0-19,8.523-19,19v11H35c-2.209,0-4,1.791-4,4v90
	c0,2.209,1.791,4,4,4h90c2.209,0,4-1.791,4-4V45C129,42.791,127.209,41,125,41z M69,30c0-6.065,4.935-11,11-11
	c6.064,0,11,4.935,11,11v11H69V30z M121,131H39V49h82V131z M74.083,105c0,2.209-1.791,4-4,4H55c-1.498,0-2.87-0.836-3.556-2.168
	c-0.686-1.331-0.571-2.934,0.298-4.152l8.017-11.25c1.282-1.801,3.779-2.22,5.579-0.938c1.799,1.281,2.218,3.779,0.936,5.578
	L62.762,101h7.321C72.292,101,74.083,102.791,74.083,105z M94.662,90.491c1.8-1.282,4.297-0.862,5.579,0.937l8.017,11.252
	c0.869,1.219,0.984,2.822,0.299,4.152C107.869,108.164,106.498,109,105,109H89.75c-2.209,0-4-1.791-4-4s1.791-4,4-4h7.488
	l-3.514-4.93C92.443,94.271,92.863,91.773,94.662,90.491z M88.021,85.168c-1.25,0-2.48-0.584-3.263-1.679L80,76.809l-4.76,6.68
	c-1.283,1.799-3.78,2.218-5.579,0.937c-1.799-1.281-2.218-3.779-0.937-5.579l8.018-11.252c0.751-1.053,1.964-1.679,3.258-1.679
	c1.293,0,2.507,0.625,3.258,1.679l8.018,11.252c1.281,1.799,0.863,4.297-0.937,5.579C89.635,84.928,88.824,85.168,88.021,85.168z"/>
</svg>
