<?xml version="1.0" encoding="utf-8"?>
<!-- Generator: Adobe Illustrator 15.0.0, SVG Export Plug-In . SVG Version: 6.00 Build 0)  -->
<!DOCTYPE svg PUBLIC "-//W3C//DTD SVG 1.1//EN" "http://www.w3.org/Graphics/SVG/1.1/DTD/svg11.dtd">
<svg version="1.1" id="Warstwa_1" xmlns="http://www.w3.org/2000/svg" xmlns:xlink="http://www.w3.org/1999/xlink" x="0px" y="0px"
	 width="160px" height="160px" viewBox="0 0 160 160" enable-background="new 0 0 160 160" xml:space="preserve">
<path id="grain" d="M41,80c0,14.654,8.128,27.441,20.109,34.104C61.043,114.393,61,114.691,61,115v20c0,2.209,1.791,4,4,4
	s4-1.791,4-4v-17.59c2.257,0.665,4.595,1.14,7,1.386V145c0,2.209,1.791,4,4,4s4-1.791,4-4v-26.204c2.404-0.246,4.743-0.721,7-1.386
	V135c0,2.209,1.791,4,4,4s4-1.791,4-4v-20c0-0.309-0.043-0.607-0.109-0.896C110.872,107.441,119,94.654,119,80c0-2.209-1.791-4-4-4
	c-2.203,0-4.359,0.193-6.465,0.545C115.021,69.578,119,60.247,119,50c0-2.209-1.791-4-4-4c-8.766,0-16.863,2.908-23.384,7.809
	c5.372-13.957,2.45-30.4-8.788-41.637c-1.563-1.562-4.094-1.562-5.657,0c-7.366,7.367-11.423,17.161-11.423,27.578
	c0,4.88,0.901,9.619,2.605,14.04C61.839,48.902,53.753,46,45,46c-2.209,0-4,1.791-4,4c0,10.248,3.979,19.579,10.465,26.546
	C49.36,76.193,47.203,76,45,76C42.791,76,41,77.791,41,80z M80,89c0.007,0,0.013,0,0.02,0c0.002,0,0.004,0,0.007,0
	c2.194-0.002,4.342-0.193,6.438-0.545c-2.584,2.773-4.768,5.922-6.462,9.355c-1.693-3.435-3.88-6.58-6.462-9.355
	C75.643,88.809,77.799,89,80,89z M84.297,110.703c1.902-13.663,12.743-24.504,26.406-26.406
	C108.801,97.96,97.96,108.801,84.297,110.703z M110.703,54.297C108.801,67.96,97.96,78.801,84.297,80.703
	C86.199,67.04,97.04,56.199,110.703,54.297z M79.998,21.074c8.318,11.007,8.318,26.342,0,37.35
	c-4.055-5.351-6.25-11.844-6.25-18.674C73.749,32.919,75.943,26.425,79.998,21.074z M75.703,80.703
	C62.04,78.801,51.199,67.96,49.297,54.297C62.96,56.199,73.801,67.04,75.703,80.703z M75.703,110.703
	C62.04,108.801,51.199,97.96,49.297,84.297C62.96,86.199,73.801,97.04,75.703,110.703z"/>
</svg>
