<?xml version="1.0" encoding="utf-8"?>
<!-- Generator: Adobe Illustrator 15.0.0, SVG Export Plug-In . SVG Version: 6.00 Build 0)  -->
<!DOCTYPE svg PUBLIC "-//W3C//DTD SVG 1.1//EN" "http://www.w3.org/Graphics/SVG/1.1/DTD/svg11.dtd">
<svg version="1.1" id="Warstwa_1" xmlns="http://www.w3.org/2000/svg" xmlns:xlink="http://www.w3.org/1999/xlink" x="0px" y="0px"
	 width="160px" height="160px" viewBox="0 0 160 160" enable-background="new 0 0 160 160" xml:space="preserve">
<path id="grape" d="M31,80c0,9.126,6.47,16.766,15.062,18.584C46.026,99.055,46,99.527,46,100c0,9.126,6.47,16.766,15.062,18.584
	C61.026,119.055,61,119.527,61,120c0,10.477,8.523,19,19,19c10.477,0,19-8.523,19-19c0-0.473-0.025-0.945-0.063-1.416
	C107.529,116.766,114,109.126,114,100c0-0.473-0.025-0.945-0.063-1.416C122.529,96.766,129,89.126,129,80
	c0-9.129-6.475-16.771-15.072-18.586C113.963,60.945,114,60.477,114,60c0-10.477-8.523-19-19-19c-4.102,0-7.893,1.319-11,3.537V30
	c0-1.461,0.279-2.877,0.834-4.211c0.555-1.337,1.357-2.538,2.389-3.568c1.029-1.03,2.23-1.833,3.566-2.388
	c2.668-1.104,5.756-1.105,8.42,0c1.34,0.556,2.54,1.36,3.568,2.389c0.822,0.822,1.502,1.754,2.023,2.777
	c-0.521,1.023-1.199,1.956-2.025,2.781c-1.027,1.03-2.228,1.833-3.564,2.387c-2.041,0.845-3.01,3.185-2.164,5.226
	c0.846,2.042,3.188,3.01,5.227,2.165c2.314-0.958,4.389-2.346,6.16-4.121c1.778-1.777,3.166-3.851,4.123-6.164
	c0.198-0.482,0.303-1,0.303-1.521l0.004-1.484c0-0.529-0.104-1.052-0.307-1.541c-0.959-2.313-2.347-4.386-4.121-6.161
	c-1.772-1.773-3.846-3.159-6.162-4.121c-4.621-1.915-9.924-1.916-14.549,0c-2.313,0.96-4.385,2.347-6.16,4.121
	c-1.775,1.777-3.163,3.851-4.12,6.161C76.486,25.034,76,27.481,76,30v14.537C72.892,42.319,69.101,41,65,41
	c-10.477,0-19,8.523-19,19c0,0.477,0.037,0.945,0.072,1.414C37.475,63.229,31,70.871,31,80z M54,100
	c0-0.486,0.034-0.973,0.102-1.458c1.518-0.336,2.961-0.86,4.319-1.536c0.132-0.064,0.267-0.123,0.396-0.189
	c0.299-0.157,0.586-0.332,0.875-0.504c0.223-0.133,0.446-0.263,0.662-0.402c0.24-0.156,0.471-0.322,0.702-0.489
	c0.25-0.18,0.498-0.36,0.74-0.553c0.203-0.162,0.4-0.328,0.597-0.498c0.249-0.214,0.491-0.435,0.729-0.662
	c0.183-0.175,0.363-0.353,0.539-0.534c0.223-0.23,0.437-0.47,0.648-0.714c0.178-0.203,0.354-0.405,0.523-0.617
	c0.054-0.067,0.114-0.129,0.167-0.196c0.053,0.067,0.113,0.129,0.167,0.196c0.169,0.212,0.346,0.414,0.523,0.617
	c0.211,0.244,0.426,0.481,0.648,0.714c0.176,0.184,0.356,0.359,0.539,0.534c0.237,0.228,0.48,0.448,0.729,0.662
	c0.196,0.17,0.394,0.336,0.597,0.498c0.242,0.19,0.489,0.373,0.74,0.553c0.231,0.167,0.462,0.333,0.702,0.489
	c0.216,0.141,0.439,0.271,0.662,0.402c0.289,0.172,0.577,0.347,0.875,0.504c0.13,0.066,0.265,0.125,0.396,0.189
	c1.358,0.676,2.802,1.2,4.319,1.536C75.966,99.027,76,99.514,76,100c0,1.291-0.235,2.525-0.646,3.677
	c-0.002,0.007-0.007,0.015-0.009,0.021c-0.275,0.769-0.629,1.489-1.052,2.161c-0.008,0.013-0.016,0.025-0.024,0.039
	c-0.122,0.191-0.251,0.377-0.384,0.561c-0.049,0.066-0.1,0.135-0.151,0.202c-0.126,0.166-0.255,0.33-0.39,0.487
	c-0.051,0.061-0.106,0.115-0.159,0.175c-0.255,0.284-0.523,0.555-0.805,0.811c-0.072,0.065-0.143,0.134-0.216,0.196
	c-0.151,0.13-0.307,0.254-0.465,0.376c-0.074,0.058-0.149,0.112-0.225,0.168c-1.665,1.214-3.67,1.963-5.82,2.089
	c-0.021,0.001-0.04,0.008-0.06,0.008C65.396,110.98,65.201,111,65,111C58.935,111,54,106.064,54,100z M73.817,76.815
	c0.299-0.158,0.586-0.331,0.875-0.504c0.223-0.132,0.446-0.262,0.662-0.402c0.24-0.156,0.471-0.322,0.702-0.489
	c0.25-0.179,0.498-0.361,0.74-0.553c0.203-0.162,0.4-0.328,0.597-0.498c0.249-0.214,0.491-0.435,0.729-0.662
	c0.183-0.175,0.363-0.352,0.539-0.535c0.223-0.231,0.437-0.47,0.648-0.713c0.178-0.204,0.354-0.406,0.523-0.618
	c0.054-0.067,0.114-0.128,0.167-0.197c0.053,0.068,0.113,0.129,0.167,0.197c0.169,0.211,0.346,0.414,0.523,0.618
	c0.211,0.243,0.426,0.482,0.647,0.713c0.177,0.183,0.356,0.359,0.539,0.535c0.237,0.227,0.479,0.448,0.729,0.662
	c0.195,0.169,0.394,0.336,0.597,0.498c0.241,0.191,0.489,0.374,0.739,0.553c0.23,0.167,0.463,0.333,0.701,0.489
	c0.217,0.141,0.439,0.271,0.662,0.402c0.289,0.173,0.577,0.346,0.877,0.504c0.129,0.068,0.264,0.126,0.396,0.191
	c1.358,0.675,2.802,1.2,4.319,1.536C90.966,79.027,91,79.514,91,80c0,1.291-0.234,2.525-0.646,3.677
	c-0.002,0.007-0.006,0.015-0.008,0.021c-0.275,0.769-0.631,1.489-1.054,2.161c-0.008,0.013-0.017,0.025-0.022,0.039
	c-0.121,0.191-0.252,0.377-0.386,0.561c-0.049,0.066-0.1,0.135-0.149,0.202c-0.127,0.166-0.256,0.33-0.392,0.487
	c-0.051,0.061-0.104,0.115-0.157,0.175c-0.256,0.284-0.523,0.555-0.806,0.811c-0.071,0.065-0.144,0.134-0.217,0.196
	c-0.149,0.13-0.308,0.254-0.466,0.376c-0.073,0.058-0.147,0.112-0.225,0.168c-1.664,1.214-3.67,1.963-5.82,2.089
	c-0.021,0.001-0.039,0.008-0.06,0.008C80.396,90.98,80.201,91,80,91s-0.396-0.02-0.595-0.029c-0.02-0.002-0.039-0.008-0.06-0.009
	c-2.15-0.126-4.156-0.875-5.82-2.089c-0.076-0.057-0.151-0.111-0.225-0.168c-0.158-0.122-0.314-0.246-0.465-0.376
	c-0.074-0.063-0.144-0.131-0.216-0.196c-0.281-0.256-0.55-0.525-0.805-0.811c-0.052-0.059-0.107-0.114-0.159-0.174
	c-0.135-0.158-0.264-0.322-0.39-0.488c-0.051-0.067-0.102-0.135-0.151-0.202c-0.133-0.183-0.263-0.368-0.384-0.56
	c-0.008-0.015-0.016-0.027-0.024-0.041c-0.422-0.67-0.777-1.393-1.052-2.16c-0.002-0.008-0.007-0.014-0.009-0.021
	C69.235,82.525,69,81.291,69,80c0-0.486,0.034-0.973,0.102-1.458c1.518-0.336,2.961-0.86,4.319-1.536
	C73.553,76.941,73.688,76.883,73.817,76.815z M80,131c-6.065,0-11-4.936-11-11c0-0.486,0.034-0.973,0.102-1.458
	c1.518-0.336,2.961-0.86,4.319-1.536c0.132-0.064,0.267-0.123,0.396-0.189c0.299-0.157,0.586-0.332,0.875-0.504
	c0.223-0.133,0.446-0.263,0.662-0.402c0.24-0.156,0.471-0.322,0.702-0.489c0.25-0.18,0.498-0.36,0.74-0.553
	c0.203-0.162,0.4-0.328,0.597-0.498c0.249-0.214,0.491-0.435,0.729-0.662c0.183-0.175,0.363-0.353,0.539-0.534
	c0.223-0.23,0.437-0.47,0.648-0.714c0.178-0.203,0.354-0.405,0.523-0.617c0.054-0.067,0.114-0.129,0.167-0.196
	c0.053,0.067,0.113,0.129,0.167,0.196c0.169,0.212,0.346,0.414,0.523,0.617c0.211,0.244,0.426,0.481,0.647,0.714
	c0.177,0.184,0.356,0.359,0.539,0.534c0.237,0.228,0.479,0.448,0.729,0.662c0.195,0.17,0.394,0.336,0.597,0.498
	c0.241,0.19,0.489,0.373,0.739,0.553c0.23,0.167,0.463,0.333,0.701,0.489c0.217,0.141,0.439,0.271,0.662,0.402
	c0.289,0.172,0.577,0.347,0.877,0.504c0.129,0.066,0.264,0.125,0.396,0.189c1.358,0.676,2.802,1.2,4.319,1.536
	C90.966,119.027,91,119.514,91,120C91,126.064,86.064,131,80,131z M95,111c-0.201,0-0.396-0.02-0.596-0.029
	c-0.021-0.002-0.038-0.008-0.059-0.009c-2.15-0.126-4.156-0.875-5.82-2.089c-0.076-0.057-0.15-0.111-0.226-0.168
	c-0.157-0.122-0.313-0.246-0.465-0.376c-0.073-0.063-0.146-0.131-0.217-0.196c-0.281-0.256-0.55-0.525-0.806-0.811
	c-0.053-0.059-0.106-0.114-0.158-0.174c-0.135-0.158-0.264-0.322-0.391-0.488c-0.051-0.067-0.102-0.135-0.15-0.202
	c-0.133-0.183-0.264-0.368-0.385-0.56c-0.008-0.015-0.016-0.027-0.022-0.041c-0.423-0.67-0.776-1.393-1.054-2.16
	c-0.002-0.008-0.006-0.014-0.008-0.021C84.234,102.525,84,101.291,84,100c0-0.486,0.034-0.973,0.102-1.458
	c1.519-0.336,2.961-0.86,4.319-1.536c0.132-0.064,0.267-0.123,0.396-0.189c0.3-0.157,0.588-0.332,0.877-0.504
	c0.223-0.133,0.445-0.263,0.662-0.402c0.238-0.156,0.471-0.322,0.701-0.489c0.25-0.18,0.498-0.36,0.739-0.553
	c0.203-0.162,0.399-0.328,0.597-0.498c0.25-0.214,0.491-0.435,0.729-0.662c0.183-0.175,0.362-0.353,0.539-0.534
	c0.223-0.23,0.437-0.47,0.647-0.714c0.178-0.203,0.354-0.405,0.523-0.617c0.055-0.067,0.113-0.129,0.167-0.196
	c0.054,0.067,0.112,0.129,0.167,0.196c0.169,0.212,0.346,0.414,0.523,0.617c0.211,0.244,0.426,0.481,0.647,0.714
	c0.177,0.184,0.356,0.359,0.539,0.534c0.237,0.228,0.479,0.448,0.729,0.662c0.195,0.17,0.394,0.336,0.597,0.498
	c0.241,0.19,0.489,0.373,0.739,0.553c0.23,0.167,0.463,0.333,0.701,0.489c0.217,0.141,0.439,0.271,0.662,0.402
	c0.289,0.172,0.577,0.347,0.877,0.504c0.129,0.066,0.264,0.125,0.396,0.189c1.358,0.676,2.802,1.2,4.319,1.536
	C105.966,99.027,106,99.514,106,100C106,106.064,101.064,111,95,111z M121,80c0,6.064-4.936,11-11,11
	c-0.201,0-0.396-0.02-0.596-0.029c-0.021-0.002-0.038-0.008-0.059-0.009c-2.15-0.126-4.156-0.875-5.82-2.089
	c-0.076-0.057-0.15-0.111-0.226-0.168c-0.157-0.122-0.313-0.246-0.465-0.376c-0.073-0.063-0.146-0.131-0.217-0.196
	c-0.281-0.256-0.55-0.525-0.806-0.811c-0.053-0.059-0.106-0.114-0.158-0.174c-0.135-0.158-0.264-0.322-0.391-0.488
	c-0.051-0.067-0.102-0.135-0.15-0.202c-0.133-0.183-0.264-0.368-0.385-0.56c-0.008-0.015-0.016-0.027-0.022-0.041
	c-0.423-0.67-0.776-1.393-1.054-2.16c-0.002-0.008-0.006-0.014-0.008-0.021C99.234,82.525,99,81.291,99,80
	c0-0.486,0.034-0.973,0.102-1.458c0.66-0.146,1.306-0.33,1.938-0.542c0.041-0.014,0.081-0.031,0.122-0.045
	c0.563-0.194,1.118-0.413,1.657-0.658c0.132-0.059,0.258-0.124,0.387-0.186c0.439-0.213,0.874-0.438,1.296-0.682
	c0.181-0.104,0.354-0.214,0.533-0.324c0.356-0.224,0.706-0.456,1.047-0.702c0.2-0.146,0.399-0.293,0.596-0.446
	c0.306-0.239,0.601-0.488,0.892-0.744c0.197-0.174,0.393-0.348,0.582-0.53c0.285-0.273,0.555-0.56,0.822-0.85
	c0.164-0.18,0.334-0.354,0.49-0.541c0.311-0.363,0.598-0.743,0.879-1.129c0.094-0.126,0.192-0.246,0.28-0.375
	c0.372-0.536,0.721-1.089,1.036-1.664C116.939,69.926,121,74.498,121,80z M95,49c6.064,0,11,4.935,11,11
	c0,1.291-0.234,2.525-0.646,3.677c-0.002,0.007-0.006,0.014-0.008,0.021c-0.275,0.768-0.631,1.49-1.054,2.161
	c-0.008,0.013-0.017,0.027-0.022,0.04c-0.121,0.192-0.252,0.377-0.386,0.56c-0.049,0.068-0.1,0.135-0.149,0.202
	c-0.127,0.166-0.256,0.331-0.392,0.488c-0.051,0.06-0.104,0.116-0.157,0.175c-0.256,0.285-0.523,0.554-0.806,0.81
	c-0.071,0.065-0.144,0.133-0.217,0.196c-0.149,0.13-0.308,0.254-0.466,0.375c-0.073,0.057-0.147,0.113-0.225,0.168
	c-1.664,1.214-3.67,1.963-5.82,2.089c-0.021,0.001-0.039,0.007-0.06,0.008C95.396,70.98,95.201,71,95,71s-0.396-0.02-0.596-0.03
	c-0.021-0.001-0.038-0.007-0.059-0.008c-2.15-0.126-4.156-0.875-5.82-2.089c-0.076-0.056-0.15-0.111-0.226-0.168
	c-0.157-0.122-0.313-0.246-0.465-0.375c-0.073-0.063-0.146-0.131-0.217-0.196c-0.281-0.256-0.55-0.525-0.806-0.81
	c-0.053-0.059-0.106-0.115-0.158-0.175c-0.135-0.158-0.264-0.322-0.391-0.488c-0.051-0.067-0.102-0.134-0.15-0.202
	c-0.133-0.183-0.264-0.368-0.385-0.56c-0.008-0.013-0.016-0.026-0.022-0.04c-0.423-0.67-0.776-1.393-1.054-2.161
	c-0.002-0.007-0.006-0.014-0.008-0.021C84.234,62.525,84,61.291,84,60C84,53.935,88.936,49,95,49z M65,49c6.065,0,11,4.935,11,11
	c0,1.291-0.235,2.525-0.646,3.677c-0.002,0.007-0.007,0.014-0.009,0.021c-0.275,0.768-0.629,1.49-1.052,2.161
	c-0.008,0.013-0.016,0.027-0.024,0.04c-0.122,0.192-0.251,0.377-0.384,0.56c-0.049,0.068-0.1,0.135-0.151,0.202
	c-0.126,0.166-0.255,0.331-0.39,0.488c-0.051,0.06-0.106,0.116-0.159,0.175c-0.255,0.285-0.523,0.554-0.805,0.81
	c-0.072,0.065-0.143,0.133-0.216,0.196c-0.151,0.13-0.307,0.254-0.465,0.375c-0.074,0.057-0.149,0.113-0.225,0.168
	c-1.665,1.214-3.67,1.963-5.82,2.089c-0.021,0.001-0.04,0.007-0.06,0.008C65.396,70.98,65.201,71,65,71s-0.396-0.02-0.595-0.03
	c-0.02-0.001-0.039-0.007-0.06-0.008c-2.15-0.126-4.156-0.875-5.82-2.089c-0.076-0.056-0.151-0.111-0.225-0.168
	c-0.158-0.122-0.314-0.246-0.465-0.375c-0.074-0.063-0.144-0.131-0.216-0.196c-0.281-0.256-0.55-0.525-0.805-0.81
	c-0.052-0.059-0.107-0.115-0.159-0.175c-0.135-0.158-0.264-0.322-0.39-0.488c-0.051-0.067-0.102-0.134-0.151-0.202
	c-0.133-0.183-0.263-0.368-0.384-0.56c-0.008-0.013-0.016-0.026-0.024-0.04c-0.422-0.67-0.777-1.393-1.052-2.161
	c-0.002-0.007-0.007-0.014-0.009-0.021C54.235,62.525,54,61.291,54,60C54,53.935,58.935,49,65,49z M48.343,69.125
	c0.315,0.575,0.664,1.127,1.036,1.664c0.089,0.129,0.188,0.249,0.281,0.375c0.281,0.386,0.569,0.766,0.879,1.129
	c0.158,0.186,0.326,0.361,0.491,0.541c0.267,0.291,0.537,0.577,0.822,0.85c0.189,0.183,0.386,0.356,0.583,0.53
	c0.29,0.256,0.585,0.505,0.89,0.744c0.196,0.153,0.395,0.301,0.596,0.446c0.341,0.246,0.69,0.479,1.047,0.702
	c0.177,0.11,0.353,0.22,0.533,0.324c0.421,0.244,0.854,0.469,1.295,0.682c0.129,0.062,0.255,0.127,0.385,0.186
	c0.54,0.245,1.094,0.464,1.659,0.658c0.041,0.014,0.081,0.031,0.122,0.045c0.632,0.212,1.277,0.396,1.937,0.542
	C60.966,79.027,61,79.514,61,80c0,1.291-0.235,2.525-0.646,3.677c-0.002,0.007-0.007,0.015-0.009,0.021
	c-0.275,0.769-0.629,1.489-1.052,2.161c-0.008,0.013-0.016,0.025-0.024,0.039c-0.122,0.191-0.251,0.377-0.384,0.561
	c-0.049,0.066-0.1,0.135-0.151,0.202c-0.126,0.166-0.255,0.33-0.39,0.487c-0.051,0.061-0.106,0.115-0.159,0.175
	c-0.255,0.284-0.523,0.555-0.805,0.811c-0.072,0.065-0.143,0.134-0.216,0.196c-0.151,0.13-0.307,0.254-0.465,0.376
	c-0.074,0.058-0.149,0.112-0.225,0.168c-1.665,1.214-3.67,1.963-5.82,2.089c-0.021,0.001-0.04,0.008-0.06,0.008
	C50.396,90.98,50.201,91,50,91c-6.065,0-11-4.936-11-11C39,74.498,43.061,69.926,48.343,69.125z"/>
</svg>
