<?xml version="1.0" encoding="utf-8"?>
<!-- Generator: Adobe Illustrator 15.0.0, SVG Export Plug-In . SVG Version: 6.00 Build 0)  -->
<!DOCTYPE svg PUBLIC "-//W3C//DTD SVG 1.1//EN" "http://www.w3.org/Graphics/SVG/1.1/DTD/svg11.dtd">
<svg version="1.1" id="Warstwa_1" xmlns="http://www.w3.org/2000/svg" xmlns:xlink="http://www.w3.org/1999/xlink" x="0px" y="0px"
	 width="160px" height="160px" viewBox="0 0 160 160" enable-background="new 0 0 160 160" xml:space="preserve">
<path d="M126.039,85.07c-1.967-4.743-4.813-8.998-8.46-12.647c-1.226-1.226-2.538-2.343-3.903-3.388l1.427-0.037
	C117.271,68.943,119,67.169,119,65V45c0-7.72-6.28-14-14-14H55c-7.72,0-14,6.28-14,14v20c0,2.209,1.791,4,4,4h1.369
	c-1.382,1.055-2.709,2.185-3.949,3.423c-3.644,3.645-6.49,7.899-8.461,12.647c-1.118,2.699-1.911,5.493-2.396,8.353
	c-0.208,0.484-0.325,1.017-0.325,1.577c0,0.139,0.027,0.271,0.041,0.406C31.101,96.922,31,98.454,31,100.001
	c0.001,5.169,0.997,10.192,2.96,14.931c1.97,4.746,4.816,9.001,8.461,12.645c3.646,3.645,7.9,6.492,12.65,8.463
	C59.813,138.004,64.836,139,70,139h20c5.168,0,10.19-0.996,14.93-2.96c4.746-1.968,9.002-4.815,12.65-8.465
	c3.646-3.647,6.492-7.902,8.459-12.645C128.004,110.192,129,105.169,129,100S128.004,89.808,126.039,85.07z M49,45
	c0-3.309,2.691-6,6-6h50c3.309,0,6,2.691,6,6v16.101l-0.919,0.023C106.837,61.099,104,58.248,104,55c0-2.209-1.791-4-4-4
	s-4,1.791-4,4v0.249c0,3.24-2.636,5.875-5.875,5.875C86.862,61.125,84,58.263,84,55c0-2.209-1.791-4-4-4s-4,1.791-4,4v0.249
	c0,3.24-2.636,5.875-5.875,5.875C66.862,61.125,64,58.263,64,55c0-2.209-1.791-4-4-4s-4,1.791-4,4v0.125C56,58.31,53.252,61,50,61
	h-1V45z M48.077,78.081c2.522-2.521,5.429-4.573,8.64-6.099c0.714-0.339,1.312-0.883,1.717-1.562l2.745-4.594
	c2.456,2.047,5.585,3.298,8.946,3.298c3.923,0,7.47-1.636,9.996-4.262c2.58,2.615,6.141,4.262,10.004,4.262
	c3.333,0,6.388-1.189,8.782-3.155l2.617,4.381c0.231,0.406,0.538,0.776,0.915,1.091c0.298,0.248,0.622,0.447,0.963,0.595
	c3.162,1.519,6.028,3.551,8.52,6.042c2.901,2.903,5.164,6.286,6.727,10.054c0.391,0.941,0.732,1.897,1.026,2.866H40.324
	c0.293-0.969,0.635-1.924,1.024-2.865C42.915,84.362,45.179,80.979,48.077,78.081z M118.648,111.866
	c-1.563,3.769-3.825,7.151-6.726,10.053c-2.902,2.902-6.286,5.167-10.057,6.731C98.104,130.209,94.111,131,90,131H70
	c-4.108,0-8.101-0.791-11.864-2.351c-3.774-1.566-7.158-3.831-10.059-6.729c-2.898-2.898-5.162-6.281-6.728-10.053
	c-1.559-3.762-2.349-7.754-2.35-11.866c0-0.335,0.014-0.668,0.024-1.001h81.951c0.011,0.333,0.024,0.666,0.024,1
	C121,104.111,120.209,108.104,118.648,111.866z"/>
</svg>
