<?xml version="1.0" encoding="utf-8"?>
<!-- Generator: Adobe Illustrator 15.0.0, SVG Export Plug-In . SVG Version: 6.00 Build 0)  -->
<!DOCTYPE svg PUBLIC "-//W3C//DTD SVG 1.1//EN" "http://www.w3.org/Graphics/SVG/1.1/DTD/svg11.dtd">
<svg version="1.1" id="Warstwa_1" xmlns="http://www.w3.org/2000/svg" xmlns:xlink="http://www.w3.org/1999/xlink" x="0px" y="0px"
	 width="160px" height="160px" viewBox="0 0 160 160" enable-background="new 0 0 160 160" xml:space="preserve">
<path id="mushrooms" d="M25.066,69h24.117c-11.846,34.148,1.533,66.159,2.14,67.576C51.954,138.047,53.399,139,55,139h30h5h20
	c1.906,0,3.549-1.346,3.922-3.215L118.279,114h16.654c2.105,0,3.852-1.633,3.991-3.732c0.044-0.66,0.074-1.322,0.074-1.992
	c0-3.842-0.74-7.575-2.201-11.101c-1.463-3.526-3.58-6.692-6.293-9.405c-2.662-2.662-5.763-4.752-9.218-6.213
	c-5.129-2.71-12.871-4.263-21.29-4.263c-2.298,0-4.543,0.12-6.7,0.343c-0.682-2.943-1.509-5.827-2.479-8.637h24.115
	c2.104,0,3.851-1.632,3.99-3.733c0.044-0.658,0.074-1.321,0.074-1.991c0-3.841-0.74-7.576-2.201-11.101
	c-1.463-3.527-3.58-6.692-6.293-9.406c-2.71-2.71-5.874-4.826-9.406-6.291c-11.502-4.763-21.192-7.935-31.101-7.935
	c-9.907,0-19.597,3.171-31.101,7.934c-3.528,1.463-6.692,3.581-9.403,6.292c-2.712,2.711-4.829,5.875-6.293,9.405
	c-1.459,3.524-2.2,7.26-2.2,11.101c0,0.608,0.024,1.244,0.076,1.998C21.22,67.372,22.963,69,25.066,69z M106.721,131H93.279l-3.4-17
	h20.242L106.721,131z M117.667,88.691c0.12,0.065,0.244,0.125,0.37,0.178c2.556,1.061,4.848,2.593,6.813,4.557
	c1.967,1.967,3.5,4.26,4.56,6.813c0.767,1.848,1.258,3.778,1.471,5.762h-15.896c-0.004,0-0.006,0-0.01,0H85.027
	c-0.004,0-0.006,0-0.008,0H85H69.121c0.213-1.983,0.705-3.914,1.472-5.763c1.059-2.555,2.593-4.846,4.559-6.813
	c1.967-1.966,4.258-3.5,6.812-4.559c0.126-0.053,0.25-0.111,0.37-0.176c0.045-0.025,0.096-0.049,0.143-0.072
	c0.215-0.113,0.434-0.225,0.664-0.334c0.061-0.027,0.125-0.055,0.187-0.082c0.229-0.105,0.464-0.21,0.71-0.311
	c0.049-0.021,0.102-0.039,0.152-0.061c0.267-0.105,0.539-0.212,0.822-0.313c0.033-0.013,0.067-0.023,0.102-0.035
	c0.309-0.109,0.623-0.215,0.949-0.316c0.017-0.005,0.033-0.01,0.049-0.016c1.422-0.441,3.008-0.815,4.721-1.109
	c0.008-0.001,0.014-0.005,0.021-0.006c2.811-0.48,5.924-0.744,9.146-0.744C107.125,85.293,113.73,86.564,117.667,88.691z
	 M85.415,79.03c-0.146,0.038-0.278,0.083-0.423,0.122c-0.354,0.097-0.702,0.197-1.045,0.301c-0.24,0.074-0.479,0.148-0.715,0.225
	c-0.34,0.111-0.674,0.228-1.002,0.346c-0.254,0.092-0.504,0.185-0.748,0.281c-0.351,0.136-0.691,0.276-1.023,0.419
	c-0.153,0.066-0.306,0.135-0.455,0.202c-0.445,0.202-0.88,0.41-1.292,0.628c-3.453,1.461-6.554,3.551-9.217,6.213
	c-2.712,2.713-4.829,5.877-6.293,9.405C61.741,100.697,61,104.434,61,108.275c0,0.608,0.024,1.244,0.076,1.998
	c0.144,2.098,1.887,3.727,3.99,3.727h16.655l2.272,11.367c-0.65,2.352-1.275,4.262-1.759,5.633H57.771
	c-2.81-8.066-10.552-34.971-0.083-62h24.625C83.561,72.227,84.598,75.583,85.415,79.03z M30.593,55.237
	c1.059-2.554,2.593-4.846,4.559-6.811c1.967-1.966,4.258-3.5,6.81-4.559C54.693,38.596,62.554,36.542,70,36.542
	s15.309,2.054,28.038,7.326c2.556,1.06,4.849,2.593,6.812,4.557c1.967,1.968,3.502,4.26,4.561,6.813
	c0.767,1.848,1.258,3.778,1.471,5.761H85H55H29.121C29.334,59.016,29.826,57.086,30.593,55.237z"/>
</svg>
