<?xml version="1.0" encoding="utf-8"?>
<!-- Generator: Adobe Illustrator 15.0.0, SVG Export Plug-In . SVG Version: 6.00 Build 0)  -->
<!DOCTYPE svg PUBLIC "-//W3C//DTD SVG 1.1//EN" "http://www.w3.org/Graphics/SVG/1.1/DTD/svg11.dtd">
<svg version="1.1" id="Warstwa_1" xmlns="http://www.w3.org/2000/svg" xmlns:xlink="http://www.w3.org/1999/xlink" x="0px" y="0px"
	 width="160px" height="160px" viewBox="0 0 160 160" enable-background="new 0 0 160 160" xml:space="preserve">
<path id="onion" d="M135.878,71.513c-4.114-3.629-8.903-6.459-14.237-8.41c-1.465-0.536-2.988-1.006-4.545-1.403l-4.184-4.442
	C112.156,56.455,111.102,56,110,56h-0.343l8.171-8.171c1.563-1.563,1.563-4.095,0-5.657s-4.094-1.562-5.656,0l-4.662,4.662
	c-0.732-3.206-1.719-6.354-2.988-9.42c-0.848-2.041-3.188-3.009-5.229-2.164c-2.041,0.846-3.009,3.187-2.163,5.227
	c0.989,2.386,1.786,4.828,2.397,7.314l-2.738-1.369c-1.977-0.987-4.379-0.188-5.367,1.789c-0.986,1.976-0.188,4.379,1.789,5.367
	l5.385,2.692c-0.563,0.212-1.08,0.537-1.503,0.982l-4.184,4.427c-1.575,0.4-3.122,0.876-4.612,1.422
	c-5.333,1.95-10.124,4.78-14.24,8.412c-4.149,3.662-7.395,7.946-9.645,12.734c-0.713,1.519-1.317,3.142-1.815,4.832l-0.924-0.925
	L44.115,70.602c0,0,0,0-0.001-0.001l-13.43-13.428c-1.563-1.562-4.095-1.562-5.656,0c-9.055,9.054-14.042,21.091-14.042,33.894
	c0,12.805,4.987,24.842,14.042,33.895c9.055,9.053,21.094,14.037,33.9,14.039c0.001,0,0.002,0,0.004,0
	c8.157,0,16-2.032,22.962-5.842c2.06,1.139,4.203,2.119,6.4,2.923c5.293,1.937,10.902,2.919,16.674,2.919
	c5.762,0,11.371-0.982,16.672-2.92c5.334-1.951,10.125-4.781,14.236-8.41c4.146-3.656,7.395-7.941,9.648-12.734
	c2.356-5.018,3.408-9.535,3.41-14.647v-0.289c-0.002-5.399-1.244-11.142-3.41-15.752C143.271,79.453,140.023,75.169,135.878,71.513z
	 M41.774,79.573l9.304,9.302C51.032,89.246,51,89.621,51,90c0,1.189,0.23,2.35,0.686,3.451c0.455,1.094,1.11,2.072,1.946,2.908
	c0.842,0.846,1.827,1.504,2.924,1.955C57.653,98.77,58.812,99,60,99c0.38,0,0.755-0.032,1.127-0.078l1.17,1.169
	c0,0.001,0,0.001,0.001,0.001l7.068,7.067l1.065,1.063C67.277,110.031,63.688,111,60,111c-11.58,0-21-9.42-21-21
	C39,86.314,39.967,82.727,41.774,79.573z M58.928,131c-10.67-0.001-20.701-4.154-28.245-11.695
	c-7.544-7.543-11.698-17.57-11.698-28.236c0-9.321,3.173-18.157,9.009-25.271l7.979,7.977C32.748,78.543,31,84.184,31,90
	c0,15.99,13.009,29,29,29c5.82,0,11.461-1.749,16.232-4.977l7.967,7.965c-1.391,1.134-2.861,2.179-4.4,3.123
	c-0.047,0.029-0.089,0.063-0.134,0.096C73.479,128.979,66.362,131,58.932,131C58.931,131,58.929,131,58.928,131z M140.938,100.285
	c-0.002,3.879-0.819,7.348-2.651,11.246c-1.785,3.797-4.377,7.209-7.7,10.14c-3.363,2.968-7.298,5.288-11.691,6.896
	c-4.416,1.615-9.103,2.435-13.924,2.435c-4.83,0-9.517-0.817-13.927-2.433c-0.512-0.188-1.021-0.387-1.524-0.596
	c0.563-0.469,1.119-0.947,1.664-1.443c0.562-0.512,1.11-1.032,1.646-1.568c0.75-0.75,1.172-1.768,1.172-2.829
	s-0.422-2.077-1.172-2.827L69.314,95.794c0.411-2.927,1.222-5.767,2.339-8.144c1.783-3.793,4.373-7.204,7.698-10.138
	c3.366-2.97,7.299-5.291,11.694-6.897c1.551-0.567,3.18-1.046,4.84-1.423c0.773-0.175,1.479-0.577,2.022-1.153L101.725,64h6.549
	l3.814,4.05c0.545,0.578,1.248,0.98,2.021,1.157c1.646,0.375,3.256,0.85,4.783,1.408c4.395,1.608,8.328,3.928,11.692,6.897
	c3.322,2.93,5.914,6.341,7.699,10.136c1.685,3.584,2.649,8.086,2.651,12.352v0.285H140.938z"/>
</svg>
