<?xml version="1.0" encoding="utf-8"?>
<!-- Generator: Adobe Illustrator 15.0.0, SVG Export Plug-In . SVG Version: 6.00 Build 0)  -->
<!DOCTYPE svg PUBLIC "-//W3C//DTD SVG 1.1//EN" "http://www.w3.org/Graphics/SVG/1.1/DTD/svg11.dtd">
<svg version="1.1" id="Warstwa_1" xmlns="http://www.w3.org/2000/svg" xmlns:xlink="http://www.w3.org/1999/xlink" x="0px" y="0px"
	 width="160px" height="160px" viewBox="0 0 160 160" enable-background="new 0 0 160 160" xml:space="preserve">
<path id="pear" d="M61,50c0,13.847-4.166,18.013-8.575,22.422c-3.648,3.646-6.496,7.901-8.464,12.648
	C41.996,89.813,41,94.835,41,100.002c0.002,5.169,0.998,10.191,2.96,14.93c1.97,4.748,4.817,9.002,8.461,12.646
	c3.647,3.647,7.903,6.493,12.65,8.463C69.811,138.004,74.834,139,80,139s10.189-0.996,14.93-2.961
	c4.746-1.969,9.002-4.814,12.648-8.463c3.645-3.643,6.492-7.896,8.463-12.646c1.961-4.736,2.957-9.759,2.959-14.93
	c0-5.165-0.996-10.188-2.961-14.932c-1.969-4.745-4.816-9-8.463-12.646C103.166,68.013,99,63.847,99,50
	c0-9.195-6.568-16.882-15.258-18.626C83.9,30.944,84,30.485,84,30V20c0-1.461,0.279-2.877,0.834-4.211
	c0.555-1.337,1.357-2.538,2.389-3.568c1.029-1.03,2.23-1.833,3.566-2.389c2.668-1.104,5.756-1.104,8.42,0
	c1.34,0.556,2.54,1.36,3.568,2.389c0.822,0.822,1.502,1.754,2.023,2.777c-0.521,1.023-1.199,1.956-2.025,2.781
	c-1.027,1.03-2.228,1.833-3.567,2.388C97.877,20.72,96.461,21,95,21c-2.209,0-4,1.791-4,4s1.791,4,4,4
	c2.52,0,4.967-0.486,7.273-1.444c2.313-0.958,4.388-2.346,6.16-4.121c1.777-1.777,3.164-3.851,4.121-6.164
	c0.199-0.482,0.303-1,0.305-1.521l0.002-1.484c0.002-0.529-0.103-1.052-0.305-1.541c-0.959-2.313-2.348-4.386-4.123-6.161
	c-1.771-1.773-3.845-3.159-6.16-4.121c-4.621-1.915-9.924-1.916-14.551,0c-2.312,0.96-4.384,2.347-6.158,4.121
	c-1.776,1.777-3.164,3.851-4.121,6.161C76.486,15.034,76,17.481,76,20v10c0,0.485,0.1,0.944,0.258,1.374
	C67.568,33.118,61,40.805,61,50z M80,39c6.064,0,11,4.935,11,11c0,15.87,4.945,22.105,10.92,28.08c2.9,2.9,5.166,6.283,6.729,10.053
	c1.562,3.766,2.353,7.758,2.353,11.865c-0.002,4.115-0.793,8.107-2.349,11.867c-1.566,3.773-3.83,7.156-6.729,10.055
	c-2.901,2.9-6.284,5.164-10.057,6.729C88.102,130.209,84.109,131,80,131c-4.109,0-8.101-0.791-11.864-2.352
	c-3.772-1.564-7.156-3.828-10.058-6.729c-2.899-2.897-5.163-6.28-6.728-10.052c-1.558-3.762-2.349-7.756-2.35-11.868
	c0-4.108,0.791-8.103,2.351-11.866c1.563-3.771,3.828-7.152,6.73-10.054C64.055,72.105,69,65.87,69,50C69,43.935,73.935,39,80,39z"
	/>
</svg>
