<?xml version="1.0" encoding="utf-8"?>
<!-- Generator: Adobe Illustrator 15.0.0, SVG Export Plug-In . SVG Version: 6.00 Build 0)  -->
<!DOCTYPE svg PUBLIC "-//W3C//DTD SVG 1.1//EN" "http://www.w3.org/Graphics/SVG/1.1/DTD/svg11.dtd">
<svg version="1.1" id="Warstwa_1" xmlns="http://www.w3.org/2000/svg" xmlns:xlink="http://www.w3.org/1999/xlink" x="0px" y="0px"
	 width="160px" height="160px" viewBox="0 0 160 160" enable-background="new 0 0 160 160" xml:space="preserve">
<path d="M127.171,124.193c1.214-2.914,1.829-6.008,1.829-9.193c0-3.178-0.612-6.269-1.821-9.19c-1.214-2.923-2.967-5.542-5.21-7.785
	c-1.458-1.458-3.092-2.686-4.852-3.716c0.016-0.039,0.037-0.076,0.054-0.115C118.385,91.279,119,88.186,119,85
	c0-3.178-0.612-6.269-1.821-9.19c-1.214-2.923-2.967-5.542-5.21-7.785c-2.238-2.238-4.855-3.988-7.781-5.203
	c-5.832-2.417-12.531-2.419-18.379,0c-0.598,0.249-1.174,0.534-1.746,0.827C80.803,59.847,79,55.025,79,50c0-11.58,9.421-21,21-21
	c1.46,0,2.876,0.28,4.208,0.833c1.341,0.556,2.541,1.36,3.569,2.389c0.823,0.822,1.502,1.754,2.024,2.777
	c-0.521,1.024-1.201,1.956-2.029,2.784c-1.023,1.027-2.221,1.828-3.567,2.384c-2.652,1.104-5.729,1.11-8.418-0.003
	c-2.041-0.845-4.381,0.125-5.226,2.166c-0.845,2.041,0.125,4.381,2.167,5.226C95.044,48.514,97.491,49,100,49
	c2.521,0,4.971-0.487,7.27-1.444c2.318-0.958,4.395-2.346,6.164-4.121c1.778-1.777,3.165-3.851,4.122-6.164
	c0.199-0.482,0.303-1,0.304-1.521l0.003-1.484c0.001-0.529-0.103-1.052-0.306-1.541c-0.959-2.313-2.347-4.386-4.122-6.161
	c-1.772-1.773-3.845-3.159-6.161-4.121C104.964,21.485,102.517,21,100,21c-11.391,0-21.264,6.604-26.004,16.181
	c-0.188-0.206-0.364-0.421-0.563-0.62c-1.771-1.771-3.843-3.157-6.161-4.119c-4.619-1.914-9.918-1.916-14.551,0.001
	c-2.308,0.959-4.378,2.344-6.155,4.118c-1.777,1.777-3.164,3.852-4.122,6.164C41.486,45.034,41,47.481,41,50c0,2.209,1.791,4,4,4
	s4-1.791,4-4c0-1.461,0.28-2.877,0.834-4.211c0.555-1.339,1.358-2.54,2.386-3.567c1.032-1.03,2.234-1.834,3.567-2.389
	c2.67-1.104,5.759-1.104,8.421-0.001c1.342,0.557,2.542,1.36,3.569,2.387c1.03,1.03,1.835,2.232,2.39,3.569
	C70.72,47.123,71,48.54,71,50c0,5.034-1.818,9.871-5.055,13.653c-0.576-0.295-1.156-0.582-1.758-0.832
	c-5.833-2.417-12.532-2.419-18.379,0c-2.917,1.212-5.533,2.962-7.777,5.203c-2.246,2.246-3.998,4.866-5.207,7.786
	C31.613,78.726,31,81.818,31,85s0.613,6.273,1.824,9.189c0.017,0.041,0.039,0.08,0.057,0.12c-1.756,1.03-3.389,2.257-4.85,3.715
	c-2.246,2.245-3.998,4.866-5.207,7.786C21.613,108.727,21,111.818,21,115s0.613,6.273,1.824,9.189
	c1.212,2.92,2.963,5.537,5.201,7.777c2.244,2.248,4.865,4,7.789,5.207c1.68,0.695,3.414,1.188,5.186,1.486V145c0,2.209,1.791,4,4,4
	s4-1.791,4-4v-6.338c1.777-0.299,3.513-0.791,5.183-1.486c2.11-0.871,4.055-2.035,5.817-3.452c1.765,1.417,3.707,2.58,5.814,3.45
	C68.741,138.386,71.832,139,75,139c0.828,0,1.65-0.044,2.464-0.127l3.958,7.916c0.701,1.401,2.114,2.212,3.581,2.212
	c0.602,0,1.212-0.136,1.786-0.423c1.976-0.988,2.776-3.391,1.789-5.367l-3.28-6.562c1.681-0.796,3.259-1.766,4.702-2.926
	c1.765,1.417,3.707,2.58,5.814,3.45C98.741,138.386,101.832,139,105,139c1.057,0,2.102-0.074,3.135-0.209l9.037,9.037
	c0.78,0.781,1.805,1.172,2.828,1.172s2.048-0.391,2.828-1.172c1.563-1.563,1.563-4.094,0-5.656l-6.192-6.193
	c1.95-1.079,3.742-2.414,5.332-4.008C124.213,129.727,125.965,127.107,127.171,124.193z M88.874,70.211
	C90.815,69.408,92.877,69,95,69s4.185,0.408,6.122,1.211c1.95,0.81,3.696,1.978,5.19,3.471c1.498,1.498,2.668,3.246,3.476,5.192
	C110.593,80.816,111,82.877,111,85c0,2.125-0.408,4.184-1.217,6.126c-0.402,0.972-0.896,1.894-1.475,2.76
	c-0.007,0.009-0.015,0.016-0.021,0.024c-0.578,0.861-1.243,1.669-1.98,2.406c-1.491,1.496-3.233,2.662-5.189,3.469
	c-2.321,0.967-4.862,1.345-7.374,1.148c-0.314-0.029-0.636-0.064-0.98-0.115c-0.017-0.002-0.033-0.004-0.049-0.007
	c-0.648-0.094-1.275-0.225-1.882-0.382c-0.054-0.015-0.107-0.025-0.161-0.041c-0.625-0.169-1.229-0.37-1.801-0.607
	c-0.486-0.201-0.96-0.425-1.421-0.67c-1.381-0.738-2.643-1.675-3.764-2.798c-0.011-0.011-0.021-0.024-0.032-0.035
	c-0.28-0.281-0.539-0.578-0.795-0.876c-0.57-0.676-1.104-1.419-1.59-2.23c-0.01-0.017-0.023-0.029-0.033-0.045
	c-0.381-0.645-0.733-1.307-1.023-2.004C79.408,89.184,79,87.124,79,85s0.408-4.184,1.214-6.126c0.807-1.947,1.976-3.694,3.472-5.19
	C85.185,72.188,86.932,71.019,88.874,70.211z M40.214,78.874c0.807-1.947,1.976-3.694,3.472-5.19
	c1.499-1.496,3.246-2.666,5.188-3.473C50.815,69.408,52.877,69,55,69s4.185,0.408,6.122,1.211c1.95,0.81,3.696,1.978,5.19,3.471
	c1.498,1.498,2.668,3.246,3.476,5.192C70.593,80.816,71,82.877,71,85c0,2.125-0.408,4.184-1.217,6.126
	c-0.288,0.696-0.639,1.356-1.019,1.999c-0.011,0.018-0.027,0.031-0.038,0.05c-0.353,0.591-0.73,1.149-1.132,1.671
	c-0.003,0.004-0.007,0.009-0.01,0.013c-0.144,0.187-0.294,0.363-0.443,0.54c-0.269,0.313-0.539,0.624-0.834,0.918
	c-1.491,1.496-3.233,2.662-5.19,3.469c-0.567,0.237-1.168,0.438-1.791,0.607c-0.05,0.014-0.1,0.023-0.149,0.037
	c-0.613,0.16-1.247,0.293-1.905,0.387c-0.001,0-0.002,0-0.002,0c-0.35,0.05-0.67,0.086-0.976,0.115
	c-2.426,0.193-4.897-0.16-7.195-1.069c-0.075-0.03-0.152-0.051-0.228-0.081c-1.945-0.804-3.689-1.971-5.185-3.468
	c-0.73-0.731-1.396-1.54-1.976-2.403c-0.007-0.01-0.015-0.018-0.021-0.026c-0.579-0.866-1.072-1.789-1.477-2.761
	C39.408,89.184,39,87.124,39,85S39.408,80.816,40.214,78.874z M51.118,129.785c-3.857,1.606-8.326,1.619-12.247-0.004
	c-1.945-0.804-3.689-1.971-5.186-3.468s-2.664-3.244-3.473-5.19C29.408,119.184,29,117.124,29,115s0.408-4.184,1.214-6.126
	c0.807-1.946,1.976-3.694,3.472-5.19c1.042-1.04,2.205-1.923,3.47-2.635c0.283,0.313,0.573,0.62,0.87,0.918
	c2.244,2.248,4.865,4,7.789,5.207c0.438,0.182,0.879,0.344,1.323,0.498c0.13,0.045,0.26,0.087,0.39,0.129
	c0.332,0.109,0.666,0.211,1.001,0.305c0.132,0.037,0.264,0.076,0.396,0.11c0.429,0.112,0.86,0.215,1.294,0.304
	c0.024,0.004,0.049,0.012,0.073,0.016c0.461,0.093,0.924,0.168,1.39,0.232c0.044,0.006,0.087,0.016,0.131,0.021
	c-0.013,0.046-0.021,0.094-0.032,0.14c-0.239,0.913-0.423,1.84-0.551,2.777c-0.019,0.133-0.033,0.267-0.05,0.399
	c-0.042,0.352-0.076,0.703-0.103,1.057c-0.011,0.138-0.022,0.274-0.03,0.412C51.019,114.048,51,114.522,51,115
	c0,0.795,0.038,1.586,0.115,2.368c0.229,2.349,0.801,4.635,1.709,6.823c0.272,0.654,0.579,1.295,0.911,1.924
	c0.198,0.377,0.42,0.739,0.637,1.104c0.104,0.175,0.194,0.354,0.304,0.526C53.588,128.574,52.399,129.257,51.118,129.785z
	 M68.871,129.781c-1.945-0.804-3.689-1.971-5.186-3.468c-0.232-0.232-0.442-0.481-0.658-0.726c-0.01-0.012-0.016-0.024-0.025-0.035
	c-0.576-0.654-1.089-1.342-1.544-2.055c-0.066-0.107-0.13-0.216-0.194-0.324c-0.159-0.263-0.314-0.527-0.457-0.797
	c-0.213-0.409-0.415-0.825-0.594-1.254C59.408,119.184,59,117.124,59,115s0.408-4.184,1.215-6.127
	c0.066-0.161,0.155-0.334,0.233-0.501c1.272-0.296,2.521-0.691,3.734-1.196c2.928-1.209,5.549-2.962,7.785-5.205
	c0.479-0.479,0.938-0.989,1.38-1.521c0.324-0.384,0.622-0.784,0.92-1.186c0.063-0.087,0.133-0.165,0.195-0.253
	c0.367-0.016,0.706-0.016,1.073,0c0.063,0.088,0.132,0.166,0.196,0.253c0.297,0.401,0.596,0.804,0.919,1.187
	c0.441,0.53,0.898,1.039,1.374,1.516c0.561,0.563,1.146,1.093,1.753,1.592c1.456,1.198,3.056,2.188,4.753,3.01
	c0.426,0.206,0.844,0.424,1.283,0.605c1.219,0.505,2.469,0.9,3.738,1.196c0.079,0.167,0.168,0.341,0.235,0.503
	C90.593,110.816,91,112.877,91,115c0,0.531-0.025,1.059-0.076,1.58c-0.153,1.566-0.534,3.09-1.142,4.547
	c-0.014,0.033-0.032,0.064-0.046,0.099c-0.166,0.392-0.349,0.773-0.543,1.147c-0.145,0.275-0.303,0.545-0.466,0.813
	c-0.062,0.104-0.121,0.207-0.185,0.309c-0.455,0.713-0.969,1.401-1.546,2.058c-0.009,0.01-0.015,0.021-0.022,0.031
	c-0.219,0.247-0.432,0.499-0.667,0.733c-1.491,1.496-3.233,2.662-5.189,3.469C77.261,131.392,72.792,131.404,68.871,129.781z
	 M119.783,121.126c-0.806,1.944-1.973,3.689-3.476,5.19c-1.491,1.496-3.233,2.662-5.189,3.469
	c-3.857,1.606-8.326,1.619-12.247-0.004c-1.273-0.525-2.46-1.207-3.547-2.035c0.113-0.179,0.207-0.366,0.315-0.547
	c0.212-0.358,0.429-0.712,0.622-1.081c0.332-0.63,0.639-1.271,0.909-1.925C98.385,121.279,99,118.186,99,115
	c0-0.477-0.019-0.949-0.046-1.422c-0.008-0.141-0.02-0.279-0.03-0.42c-0.026-0.348-0.061-0.695-0.102-1.041
	c-0.017-0.139-0.032-0.277-0.051-0.416c-0.129-0.934-0.312-1.857-0.549-2.769c-0.013-0.047-0.021-0.095-0.033-0.142
	c0.047-0.007,0.092-0.018,0.139-0.023c0.465-0.064,0.927-0.139,1.385-0.23c0.031-0.006,0.062-0.014,0.092-0.021
	c0.427-0.087,0.85-0.188,1.271-0.298c0.14-0.036,0.279-0.076,0.418-0.115c0.327-0.092,0.651-0.191,0.975-0.298
	c0.135-0.044,0.27-0.087,0.403-0.134c0.441-0.154,0.879-0.316,1.312-0.496c2.928-1.209,5.549-2.962,7.785-5.205
	c0-0.001,0-0.001,0.001-0.001c0,0,0,0,0-0.001c0.3-0.299,0.591-0.605,0.874-0.921c1.269,0.713,2.43,1.595,3.47,2.634
	c1.498,1.498,2.668,3.246,3.476,5.191c0.805,1.943,1.212,4.004,1.212,6.127C121,117.125,120.592,119.184,119.783,121.126z"/>
</svg>
