<?xml version="1.0" encoding="utf-8"?>
<!-- Generator: Adobe Illustrator 15.0.0, SVG Export Plug-In . SVG Version: 6.00 Build 0)  -->
<!DOCTYPE svg PUBLIC "-//W3C//DTD SVG 1.1//EN" "http://www.w3.org/Graphics/SVG/1.1/DTD/svg11.dtd">
<svg version="1.1" id="Warstwa_1" xmlns="http://www.w3.org/2000/svg" xmlns:xlink="http://www.w3.org/1999/xlink" x="0px" y="0px"
	 width="160px" height="160px" viewBox="0 0 160 160" enable-background="new 0 0 160 160" xml:space="preserve">
<path id="smoothie" d="M138.211,16.423l-30,15c-0.773,0.387-1.4,1.015-1.789,1.789l-3.895,7.789H88.757
	C86.77,24.132,72.395,11,55,11c-18.748,0-34,15.253-34,34.001c0,17.394,13.131,31.77,30,33.757V85c0,1.16,0.503,2.262,1.379,3.021
	l2.566,2.226c1.919,1.942,3.42,4.202,4.463,6.714C60.465,99.509,61,102.213,61,105v30c0,2.209,1.791,4,4,4h40c2.209,0,4-1.791,4-4
	v-30c0-2.787,0.535-5.491,1.591-8.037c1.043-2.514,2.546-4.771,4.464-6.716l2.566-2.226C118.497,87.262,119,86.16,119,85
	l0.001-39.999c0-1.061-0.422-2.078-1.172-2.829c-0.75-0.75-1.769-1.171-2.828-1.171h-3.528l1.51-3.019l28.808-14.404
	c1.976-0.988,2.776-3.391,1.789-5.367C142.589,16.236,140.184,15.436,138.211,16.423z M59,61.001v-12h39.527l-6,12H59z
	 M39.673,65.985l3.155-3.155c1.563-1.563,1.563-4.095,0-5.657c-1.561-1.562-4.096-1.562-5.656,0l-3.156,3.156
	c-2.402-3.28-4.058-7.139-4.707-11.327H35c2.209,0,4-1.791,4-4s-1.791-4-4-4h-5.691c0.649-4.188,2.305-8.048,4.707-11.328
	l3.156,3.156c0.78,0.781,1.805,1.171,2.828,1.171s2.048-0.391,2.828-1.171c1.563-1.563,1.563-4.095,0-5.657l-3.156-3.156
	c3.28-2.402,7.139-4.059,11.328-4.708v5.692c0,2.209,1.791,4,4,4s4-1.791,4-4v-5.692c4.189,0.649,8.048,2.306,11.328,4.708
	l-3.156,3.156c-1.563,1.563-1.563,4.095,0,5.657c0.78,0.781,1.805,1.171,2.828,1.171s2.048-0.391,2.828-1.171l3.156-3.156
	c2.402,3.28,4.058,7.139,4.708,11.328H55c-2.209,0-4,1.791-4,4v25.691C46.812,70.043,42.953,68.387,39.673,65.985z M109.701,84.301
	c-0.071,0.063-0.141,0.126-0.207,0.193c-2.71,2.71-4.827,5.873-6.293,9.404C101.74,97.422,101,101.156,101,105v26H69v-26
	c0-3.844-0.74-7.578-2.202-11.104c-1.465-3.529-3.582-6.692-6.292-9.402c-0.066-0.067-0.136-0.133-0.207-0.193L59,83.174V69.001
	h35.988c0.003,0,0.006,0.001,0.009,0.001c0.005,0,0.01-0.001,0.015-0.001H111v14.173L109.701,84.301z M111.001,49.001v12h-9.528
	l6-12H111.001z"/>
</svg>
