<?xml version="1.0" encoding="utf-8"?>
<!-- Generator: Adobe Illustrator 15.0.0, SVG Export Plug-In . SVG Version: 6.00 Build 0)  -->
<!DOCTYPE svg PUBLIC "-//W3C//DTD SVG 1.1//EN" "http://www.w3.org/Graphics/SVG/1.1/DTD/svg11.dtd">
<svg version="1.1" id="Warstwa_1" xmlns="http://www.w3.org/2000/svg" xmlns:xlink="http://www.w3.org/1999/xlink" x="0px" y="0px"
	 width="160px" height="160px" viewBox="0 0 160 160" enable-background="new 0 0 160 160" xml:space="preserve">
<path d="M148.402,102.896C147.674,101.718,146.387,101,145,101h-26.104c-0.396-7.225-1.981-14.254-4.752-20.94
	c-3.232-7.792-7.908-14.776-13.892-20.753c-5.392-5.398-11.644-9.752-18.583-12.94c-0.044-0.02-0.09-0.028-0.134-0.046
	c-0.136-0.057-0.272-0.101-0.414-0.142c-0.115-0.034-0.229-0.068-0.347-0.092c-0.133-0.026-0.269-0.04-0.404-0.053
	c-0.122-0.012-0.243-0.024-0.365-0.024c-0.136,0-0.27,0.014-0.405,0.027c-0.123,0.013-0.245,0.024-0.365,0.048
	c-0.129,0.025-0.256,0.063-0.383,0.102c-0.127,0.038-0.252,0.078-0.375,0.128c-0.049,0.02-0.1,0.028-0.148,0.051
	c-6.925,3.181-13.177,7.535-18.582,12.939C53.761,65.29,49.089,72.273,45.862,80.06c-2.772,6.678-4.361,13.708-4.755,20.94H15
	c-1.387,0-2.674,0.718-3.402,1.896c-0.729,1.18-0.795,2.651-0.176,3.893L18.527,121H10c-2.209,0-4,1.791-4,4s1.791,4,4,4h12.527
	l3.895,7.789C27.1,138.145,28.485,139,30,139h100c1.516,0,2.9-0.855,3.578-2.211l15-30
	C149.197,105.549,149.132,104.076,148.402,102.896z M106.756,83.124c2.364,5.708,3.737,11.708,4.122,17.876H98.916
	c-0.415-11.199-2.768-22.091-7.046-32.424c-1.42-3.422-3.074-6.759-4.896-10.001c2.715,1.892,5.264,4.025,7.623,6.389
	C99.837,70.198,103.928,76.309,106.756,83.124z M80.003,62.495c1.667,2.965,3.181,6.016,4.478,9.145
	c3.875,9.355,6.025,19.217,6.437,29.36H69.088c0.41-10.152,2.563-20.014,6.441-29.36C76.826,68.511,78.337,65.46,80.003,62.495z
	 M53.252,83.125c2.823-6.813,6.912-12.924,12.152-18.163c2.364-2.365,4.914-4.499,7.629-6.39c-1.822,3.243-3.476,6.581-4.894,10.003
	C63.856,78.896,61.503,89.79,61.088,101H49.126C49.511,94.827,50.885,88.828,53.252,83.125z M127.527,131H32.472l-11-22h117.057
	L127.527,131z"/>
</svg>
