<?xml version="1.0" encoding="utf-8"?>
<!-- Generator: Adobe Illustrator 15.0.0, SVG Export Plug-In . SVG Version: 6.00 Build 0)  -->
<!DOCTYPE svg PUBLIC "-//W3C//DTD SVG 1.1//EN" "http://www.w3.org/Graphics/SVG/1.1/DTD/svg11.dtd">
<svg version="1.1" id="Warstwa_1" xmlns="http://www.w3.org/2000/svg" xmlns:xlink="http://www.w3.org/1999/xlink" x="0px" y="0px"
	 width="160px" height="160px" viewBox="0 0 160 160" enable-background="new 0 0 160 160" xml:space="preserve">
<path id="tomato" d="M45.586,126.377c4.581,4.041,9.916,7.193,15.859,9.369C67.352,137.904,73.605,139,80.03,139
	c6.434,0,12.688-1.096,18.587-3.254c5.941-2.173,11.277-5.325,15.859-9.369c4.617-4.076,8.229-8.841,10.729-14.164
	c2.517-5.354,3.792-11.037,3.792-16.891c0-5.852-1.275-11.533-3.791-16.889c-2.503-5.322-6.114-10.088-10.732-14.165
	c-1.856-1.639-5.918-4.771-11.522-6.573c0.87-0.957,1.265-2.315,0.928-3.665c-0.534-2.143-2.705-3.447-4.853-2.91l-14.766,3.692
	c0.496-4.934,1.701-9.738,3.606-14.334c2.571-6.205,6.296-11.769,11.069-16.539c1.563-1.562,1.563-4.094,0.002-5.657
	c-1.562-1.563-4.094-1.563-5.656-0.002c-5.521,5.517-9.828,11.955-12.806,19.135c-1.996,4.815-3.314,9.826-3.977,14.963L62.4,41.8
	c-1.767-1.325-4.274-0.968-5.6,0.8c-1.325,1.767-0.967,4.274,0.8,5.6l11.086,8.314c-1.011-0.115-2.026-0.187-3.045-0.187
	c-9.978,0-17.346,5.552-20.05,7.938c-4.62,4.073-8.231,8.84-10.735,14.167c-2.516,5.354-3.792,11.036-3.792,16.892
	c0.002,5.855,1.277,11.537,3.791,16.889C37.361,117.542,40.972,122.309,45.586,126.377z M42.096,81.836
	c2.036-4.331,4.992-8.224,8.787-11.571c2.023-1.785,7.511-5.938,14.758-5.938c4.074,0,8.158,1.346,12.14,4
	c1.344,0.896,3.094,0.896,4.438,0c3.982-2.654,8.072-4,12.158-4c7.495,0,13.227,4.545,14.805,5.938
	c3.797,3.35,6.752,7.243,8.787,11.57C119.98,86.117,121,90.654,121,95.322c0,4.669-1.02,9.207-3.032,13.488
	c-2.034,4.328-4.989,8.219-8.784,11.567c-3.832,3.383-8.311,6.024-13.313,7.854C90.854,130.068,85.523,131,80.031,131
	c-5.485,0-10.814-0.932-15.837-2.768c-5.004-1.832-9.484-4.476-13.316-7.854c-3.791-3.343-6.747-7.235-8.784-11.567
	c-2.009-4.276-3.029-8.815-3.031-13.487C39.063,90.654,40.083,86.117,42.096,81.836z"/>
</svg>
