<?xml version="1.0" encoding="utf-8"?>
<!-- Generator: Adobe Illustrator 15.0.0, SVG Export Plug-In . SVG Version: 6.00 Build 0)  -->
<!DOCTYPE svg PUBLIC "-//W3C//DTD SVG 1.1//EN" "http://www.w3.org/Graphics/SVG/1.1/DTD/svg11.dtd">
<svg version="1.1" id="Warstwa_1" xmlns="http://www.w3.org/2000/svg" xmlns:xlink="http://www.w3.org/1999/xlink" x="0px" y="0px"
	 width="160px" height="160px" viewBox="0 0 160 160" enable-background="new 0 0 160 160" xml:space="preserve">
<path id="watermelon" d="M109.57,101.46c0.93,0.931,1.459,2.22,1.459,3.54s-0.529,2.6-1.459,3.54c-0.94,0.931-2.221,1.46-3.541,1.46
	c-1.319,0-2.6-0.529-3.539-1.46c-0.93-0.94-1.461-2.22-1.461-3.54s0.531-2.609,1.461-3.54c0.939-0.931,2.22-1.46,3.539-1.46
	C107.35,100,108.63,100.529,109.57,101.46z M115.029,81c-1.319,0-2.609,0.529-3.529,1.46c-0.939,0.931-1.471,2.22-1.471,3.54
	s0.531,2.609,1.471,3.54c0.92,0.931,2.21,1.46,3.529,1.46c1.32,0,2.611-0.529,3.531-1.46c0.938-0.931,1.469-2.22,1.469-3.54
	s-0.529-2.609-1.469-3.54C117.641,81.529,116.35,81,115.029,81z M112.49,61.47c-0.93,0.92-1.461,2.21-1.461,3.53
	s0.531,2.6,1.461,3.54c0.939,0.93,2.22,1.46,3.539,1.46c1.32,0,2.601-0.53,3.541-1.46c0.93-0.94,1.459-2.22,1.459-3.54
	c0-1.31-0.529-2.6-1.459-3.53c-0.94-0.94-2.221-1.47-3.541-1.47C114.71,60,113.43,60.53,112.49,61.47z M121.287,29.733
	c24.951,24.956,24.951,65.563,0,90.519c-12.078,12.081-28.143,18.734-45.23,18.734c-0.002,0-0.001,0-0.003,0
	c-4.461,0-8.92-0.485-13.278-1.405C58.958,138.521,55.03,139,51.03,139c-6.488,0-12.798-1.252-18.756-3.721
	c-5.964-2.473-11.312-6.051-15.895-10.633c-1.309-1.31-1.549-3.345-0.581-4.922L47.62,67.906C48.349,66.722,49.64,66,51.03,66
	c1.39,0,2.681,0.722,3.409,1.907l8.762,14.268l52.428-52.441c0.75-0.75,1.768-1.172,2.829-1.172S120.537,28.983,121.287,29.733z
	 M51.03,131c3.604,0,7.136-0.471,10.558-1.38c0.007-0.002,0.014-0.006,0.022-0.009c0.839-0.223,1.661-0.473,2.466-0.74
	c0.087-0.029,0.174-0.057,0.261-0.087c0.816-0.277,1.615-0.573,2.385-0.894c4.025-1.668,7.715-3.939,11.006-6.771L51.03,77.644
	L24.331,121.12c3.291,2.83,6.981,5.103,11.006,6.771C40.318,129.953,45.599,131,51.03,131z M118.357,38.319L67.505,89.184
	l15.313,24.937l3.256,5.301c0.501,0.668,0.799,1.498,0.799,2.397c0,0.14-0.032,0.269-0.046,0.404
	c-0.005,0.039-0.009,0.079-0.015,0.119c-0.112,0.856-0.49,1.619-1.056,2.215c-0.026,0.029-0.049,0.063-0.075,0.09
	c-0.043,0.043-0.086,0.08-0.129,0.123c-0.039,0.035-0.07,0.08-0.111,0.114c-0.318,0.314-0.648,0.612-0.976,0.917
	c-0.229,0.215-0.45,0.436-0.683,0.643c-0.461,0.416-0.934,0.813-1.407,1.209c-0.147,0.123-0.29,0.255-0.438,0.377
	c-0.631,0.514-1.271,1.011-1.925,1.49c-0.143,0.104-0.29,0.199-0.434,0.304c-0.512,0.368-1.027,0.731-1.553,1.079
	c-0.026,0.019-0.051,0.037-0.077,0.055c14.242-0.471,27.56-6.236,37.68-16.359C136.51,93.71,137.42,60.296,118.357,38.319z"/>
</svg>
