<svg id="Warstwa_1" data-name="Warstwa 1" xmlns="http://www.w3.org/2000/svg" viewBox="0 0 155.96 155.96"><title>ingredient-edited</title><path id="carrot" d="M149.16,58a5.3,5.3,0,0,0,7.5-7.5A38.44,38.44,0,0,0,123,39.77c.84-1.64,1.63-3.32,2.34-5a71.48,71.48,0,0,0,5.44-27.41,5.31,5.31,0,0,0-10.61,0,61.33,61.33,0,0,1-1.07,11.36,38.18,38.18,0,0,0-9.3-15.11,5.3,5.3,0,0,0-7.5,7.5,27.88,27.88,0,0,1,0,39.39l-.94.94-.94-.94a25.16,25.16,0,0,0-35.63,0,5,5,0,0,0-.76,1l-3.71,6-.14.22L3,149.88a5.31,5.31,0,0,0,7.31,7.31l98.46-61a5,5,0,0,0,1-.76,25.16,25.16,0,0,0,0-35.63l-.94-.94.94-.94A27.88,27.88,0,0,1,149.16,58ZM105.43,72.07a14.58,14.58,0,0,1-2.77,15.49L77.43,103.18l-5.5-5.5a5.31,5.31,0,0,0-7.51,7.5l3.74,3.74L23.93,136.3,65.65,68.9l8.15,8.15a5.3,5.3,0,0,0,7.5-7.5l-9.91-9.92,1.28-2.06A14.59,14.59,0,0,1,92.89,58l9.38,9.38A14.44,14.44,0,0,1,105.43,72.07Z" transform="translate(-2.25 -2.02)"/></svg>